<svg width="84" height="94" viewBox="0 0 84 94" fill="none" xmlns="http://www.w3.org/2000/svg">
<path d="M34.2756 42.9104H5.81402V38.0554L19.914 22.6762C21.949 20.4086 23.3929 18.5189 24.2457 17.0072C25.1179 15.476 25.554 13.9449 25.554 12.4138C25.554 10.3981 24.9822 8.77008 23.8387 7.52967C22.7146 6.28926 21.1932 5.66906 19.2744 5.66906C16.9874 5.66906 15.214 6.36679 13.9542 7.76225C12.6944 9.15771 12.0645 11.0668 12.0645 13.4894H5C5 10.9117 5.58144 8.59565 6.74433 6.54122C7.92659 4.46741 9.60308 2.85876 11.7738 1.71525C13.9639 0.571751 16.4835 0 19.3325 0C23.4414 0 26.6781 1.0369 29.0426 3.11071C31.4265 5.16514 32.6185 8.01421 32.6185 11.6579C32.6185 13.7705 32.0177 15.9896 30.816 18.3154C29.6338 20.6218 27.6859 23.248 24.9725 26.194L14.6229 37.2704H34.2756V42.9104Z" fill="#ADADAD" fill-opacity="0.39"/>
<path d="M48.4085 40.8133C48.0037 40.8133 47.6344 40.5522 47.497 40.172C47.3598 39.7921 47.4802 39.3508 47.7936 39.0947C48.1169 38.8306 48.583 38.8056 48.9341 39.0297C49.2627 39.2395 49.4354 39.643 49.3614 40.0256C49.2738 40.4772 48.8688 40.8133 48.4085 40.8133Z" fill="#77675A"/>
<path d="M76.1162 23.673H69.3305V15.5136C69.3305 13.3844 67.5982 11.6521 65.469 11.6521H31.3146C29.1854 11.6521 27.4531 13.3844 27.4531 15.5136V36.9522C27.4531 39.0815 29.1854 40.8137 31.3146 40.8137H44.0096C44.545 40.8137 44.979 40.3796 44.979 39.8443C44.979 39.309 44.545 38.8749 44.0096 38.8749H31.3146C30.2544 38.8749 29.3919 38.0124 29.3919 36.9522V15.5136C29.3919 14.4533 30.2544 13.5909 31.3146 13.5909H65.469C66.5292 13.5909 67.3917 14.4534 67.3917 15.5136V23.673H65.0652V22.2328C65.0652 21.6975 64.6312 21.2634 64.0958 21.2634C61.6825 21.2634 59.7191 19.3 59.7191 16.8868C59.7191 16.3515 59.2851 15.9174 58.7498 15.9174H38.0338C37.4985 15.9174 37.0645 16.3515 37.0645 16.8868C37.0645 19.3001 35.1011 21.2634 32.6878 21.2634C32.1524 21.2634 31.7184 21.6975 31.7184 22.2328V30.2328C31.7184 30.7681 32.1524 31.2022 32.6878 31.2022C35.1011 31.2022 37.0645 33.1656 37.0645 35.5789C37.0645 36.1142 37.4985 36.5483 38.0338 36.5483H57.7469V38.8748H52.774C52.2386 38.8748 51.8046 39.3089 51.8046 39.8442C51.8046 40.3795 52.2386 40.8136 52.774 40.8136H76.1162C76.6515 40.8136 77.0855 40.3795 77.0855 39.8442V24.6423C77.0855 24.107 76.6515 23.673 76.1162 23.673ZM59.6857 30.6791H75.1468V33.8075H59.6857V30.6791ZM75.1468 28.7403H59.6857V25.6118H75.1468V28.7403ZM33.6572 29.3378V23.1279C36.3647 22.7091 38.51 20.5637 38.929 17.8562H57.8546C58.2736 20.5637 60.4189 22.7091 63.1264 23.1279V23.673H58.7163C58.1809 23.673 57.7469 24.107 57.7469 24.6424V34.6096H38.929C38.51 31.902 36.3647 29.7568 33.6572 29.3378ZM75.1468 38.8749H59.6857V35.7464H75.1468V38.8749Z" fill="#77675A"/>
<path d="M48.3917 32.7711C44.7866 32.7711 41.8535 29.838 41.8535 26.2329C41.8535 22.6278 44.7866 19.6947 48.3917 19.6947C51.9969 19.6947 54.9299 22.6278 54.9299 26.2329C54.9299 29.838 51.9969 32.7711 48.3917 32.7711ZM48.3917 21.6335C45.8556 21.6335 43.7923 23.6968 43.7923 26.2329C43.7923 28.769 45.8556 30.8323 48.3917 30.8323C50.9278 30.8323 52.9912 28.769 52.9912 26.2329C52.9912 23.6968 50.9278 21.6335 48.3917 21.6335Z" fill="#77675A"/>
<path d="M16.4977 61.2551C16.4977 62.2304 16.3336 63.0826 16.0055 63.8118C15.6774 64.5364 15.2125 65.0901 14.611 65.4729C14.0094 65.8557 13.3076 66.0471 12.5055 66.0471C11.7217 66.0471 11.0267 65.8557 10.4205 65.4729C9.81443 65.0855 9.34275 64.5364 9.00551 63.8254C8.67283 63.1099 8.50193 62.2828 8.49281 61.344V60.6262C8.49281 59.6692 8.65915 58.8238 8.99184 58.0901C9.32452 57.3564 9.79392 56.7958 10.4 56.4084C11.0107 56.0165 11.708 55.8206 12.4918 55.8206C13.2894 55.8206 13.9912 56.0142 14.5973 56.4016C15.208 56.7844 15.6774 57.3427 16.0055 58.0764C16.3336 58.8056 16.4977 59.6555 16.4977 60.6262V61.2551ZM15.192 60.6125C15.192 59.4322 14.9551 58.5276 14.4811 57.8987C14.0071 57.2652 13.3441 56.9485 12.4918 56.9485C11.6624 56.9485 11.0084 57.2652 10.5299 57.8987C10.056 58.5276 9.81215 59.4026 9.79848 60.5237V61.2551C9.79848 62.399 10.0377 63.2991 10.5163 63.9553C10.9993 64.607 11.6624 64.9329 12.5055 64.9329C13.3532 64.9329 14.0094 64.6252 14.4743 64.01C14.9391 63.3902 15.1784 62.5038 15.192 61.3508V60.6125ZM17.9948 62.3489C17.9948 61.1139 18.234 60.1431 18.7125 59.4368C19.1911 58.7304 19.8473 58.3772 20.6813 58.3772C21.0687 58.3772 21.4082 58.4433 21.6998 58.5754V55.4104H22.9645V58.6165C23.2835 58.4569 23.6572 58.3772 24.0856 58.3772C24.9241 58.3772 25.5827 58.7304 26.0612 59.4368C26.5397 60.1431 26.7789 61.1617 26.7789 62.4924C26.7789 63.5816 26.5397 64.4475 26.0612 65.0901C25.5872 65.7327 24.9332 66.054 24.0993 66.054C23.6572 66.054 23.2789 65.981 22.9645 65.8352V68.7542H21.6998V65.8557C21.3991 65.9879 21.055 66.054 20.6676 66.054C19.8382 66.054 19.1842 65.7327 18.7057 65.0901C18.2317 64.4475 17.9948 63.568 17.9948 62.4514V62.3489ZM25.5143 62.3489C25.5143 61.4192 25.3548 60.6991 25.0358 60.1887C24.7168 59.6737 24.277 59.4163 23.7164 59.4163C23.4293 59.4163 23.1787 59.4618 22.9645 59.553V64.9055C23.1696 64.983 23.4248 65.0217 23.7301 65.0217C24.2952 65.0217 24.7327 64.803 25.0426 64.3655C25.3571 63.928 25.5143 63.2558 25.5143 62.3489ZM19.2594 62.4924C19.2594 63.3219 19.4075 63.9508 19.7038 64.3792C20 64.8075 20.4261 65.0217 20.9821 65.0217C21.2464 65.0217 21.4857 64.9807 21.6998 64.8987V59.5325C21.5084 59.455 21.2737 59.4163 20.9957 59.4163C20.4398 59.4163 20.0114 59.6646 19.7106 60.1614C19.4098 60.6581 19.2594 61.4351 19.2594 62.4924ZM28.0914 62.1438C28.0914 61.4192 28.2327 60.7675 28.5153 60.1887C28.8024 59.6099 29.1989 59.1633 29.7047 58.8489C30.2151 58.5344 30.7962 58.3772 31.4479 58.3772C32.4551 58.3772 33.2685 58.7258 33.8883 59.4231C34.5127 60.1204 34.8248 61.0478 34.8248 62.2053V62.2942C34.8248 63.0142 34.6858 63.6614 34.4079 64.2356C34.1344 64.8053 33.7402 65.2496 33.2252 65.5686C32.7148 65.8876 32.1269 66.0471 31.4616 66.0471C30.459 66.0471 29.6455 65.6985 29.0211 65.0012C28.4013 64.304 28.0914 63.3811 28.0914 62.2327V62.1438ZM29.3629 62.2942C29.3629 63.1145 29.5521 63.773 29.9303 64.2698C30.3131 64.7665 30.8235 65.0149 31.4616 65.0149C32.1041 65.0149 32.6146 64.7642 32.9928 64.2629C33.3711 63.7571 33.5602 63.0507 33.5602 62.1438C33.5602 61.3326 33.3665 60.6764 32.9791 60.175C32.5963 59.6692 32.0859 59.4163 31.4479 59.4163C30.8235 59.4163 30.32 59.6646 29.9371 60.1614C29.5543 60.6581 29.3629 61.3691 29.3629 62.2942ZM42.6588 62.2942C42.6588 63.4198 42.4013 64.3267 41.8864 65.0149C41.3714 65.703 40.6741 66.0471 39.7946 66.0471C38.8968 66.0471 38.1904 65.7623 37.6754 65.1926V68.7542H36.4108V58.5139H37.5661L37.6276 59.3342C38.1426 58.6962 38.858 58.3772 39.7741 58.3772C40.6627 58.3772 41.3646 58.7122 41.8795 59.3821C42.3991 60.052 42.6588 60.984 42.6588 62.178V62.2942ZM41.3942 62.1506C41.3942 61.3167 41.2164 60.6581 40.861 60.175C40.5055 59.692 40.0179 59.4504 39.3981 59.4504C38.6325 59.4504 38.0582 59.79 37.6754 60.469V64.0032C38.0537 64.6777 38.6325 65.0149 39.4118 65.0149C40.0179 65.0149 40.4987 64.7756 40.8541 64.2971C41.2142 63.814 41.3942 63.0986 41.3942 62.1506ZM48.5309 64.2356L51.0465 58.5139H52.6256V65.9104H51.361V60.5305L48.9684 65.9104H48.0934L45.653 60.4143V65.9104H44.3883V58.5139H46.0289L48.5309 64.2356ZM59.4479 58.5139H60.7125V65.9104H59.4479V60.5168L56.0368 65.9104H54.7721V58.5139H56.0368V63.9143L59.4479 58.5139ZM68.2389 59.5393H65.7575V65.9104H64.4928V59.5393H62.0592V58.5139H68.2389V59.5393ZM71.9918 66.0471C70.9892 66.0471 70.1735 65.719 69.5446 65.0627C68.9157 64.4019 68.6012 63.5201 68.6012 62.4172V62.1848C68.6012 61.4511 68.7402 60.7971 69.0182 60.2229C69.3008 59.6441 69.6927 59.193 70.194 58.8694C70.6998 58.5413 71.2467 58.3772 71.8346 58.3772C72.7962 58.3772 73.5436 58.6939 74.0768 59.3274C74.61 59.9609 74.8766 60.8678 74.8766 62.0481V62.5745H69.8659C69.8841 63.3036 70.096 63.8938 70.5016 64.345C70.9118 64.7916 71.4313 65.0149 72.0602 65.0149C72.5068 65.0149 72.8851 64.9237 73.195 64.7415C73.5049 64.5592 73.776 64.3176 74.0084 64.0168L74.7809 64.6184C74.1611 65.5709 73.2314 66.0471 71.9918 66.0471ZM71.8346 59.4163C71.3242 59.4163 70.8958 59.6031 70.5495 59.9768C70.2031 60.3459 69.9889 60.8655 69.9069 61.5354H73.612V61.4397C73.5755 60.7971 73.4023 60.3004 73.0924 59.9495C72.7825 59.594 72.3633 59.4163 71.8346 59.4163ZM17.694 81.9104H16.4293V75.5598H13.025V81.9104H11.7536V74.5139H17.694V81.9104ZM19.3893 78.1438C19.3893 77.4192 19.5306 76.7675 19.8131 76.1887C20.1002 75.6099 20.4967 75.1633 21.0026 74.8489C21.513 74.5344 22.0941 74.3772 22.7457 74.3772C23.7529 74.3772 24.5664 74.7258 25.1862 75.4231C25.8105 76.1204 26.1227 77.0478 26.1227 78.2053V78.2942C26.1227 79.0142 25.9837 79.6614 25.7057 80.2356C25.4323 80.8053 25.0381 81.2496 24.5231 81.5686C24.0127 81.8876 23.4248 82.0471 22.7594 82.0471C21.7568 82.0471 20.9433 81.6985 20.319 81.0012C19.6992 80.304 19.3893 79.3811 19.3893 78.2327V78.1438ZM20.6608 78.2942C20.6608 79.1145 20.8499 79.773 21.2282 80.2698C21.611 80.7665 22.1214 81.0149 22.7594 81.0149C23.402 81.0149 23.9124 80.7642 24.2907 80.2629C24.6689 79.7571 24.858 79.0507 24.858 78.1438C24.858 77.3326 24.6644 76.6764 24.277 76.175C23.8942 75.6692 23.3838 75.4163 22.7457 75.4163C22.1214 75.4163 21.6178 75.6646 21.235 76.1614C20.8522 76.6581 20.6608 77.3691 20.6608 78.2942ZM27.1549 80.8782L27.5924 80.3381C28.0846 79.7001 28.3649 78.7431 28.4332 77.467L28.5495 74.5139H33.3141V80.8782H34.2643V84.0842H32.9996V81.9104H27.8385V84.0842H26.5739L26.5807 80.8782H27.1549ZM28.652 80.8782H32.0495V75.6829H29.7731L29.6979 77.4465C29.6204 78.9185 29.2718 80.0624 28.652 80.8782ZM41.7155 81.9104H40.4508V75.5598H37.0465V81.9104H35.775V74.5139H41.7155V81.9104ZM48.5309 74.5139H49.7955V81.9104H48.5309V76.5168L45.1198 81.9104H43.8551V74.5139H45.1198V79.9143L48.5309 74.5139ZM54.7926 81.0149C55.2438 81.0149 55.638 80.8782 55.9752 80.6047C56.3125 80.3313 56.4993 79.9895 56.5358 79.5793H57.7321C57.7093 80.0032 57.5635 80.4065 57.2946 80.7893C57.0257 81.1721 56.6657 81.4775 56.2145 81.7053C55.7679 81.9332 55.2939 82.0471 54.7926 82.0471C53.7855 82.0471 52.9834 81.7122 52.3864 81.0422C51.7939 80.3678 51.4977 79.4472 51.4977 78.2805V78.0686C51.4977 77.3486 51.6299 76.7083 51.8942 76.1477C52.1585 75.5872 52.5368 75.1519 53.0289 74.842C53.5257 74.5321 54.1113 74.3772 54.7858 74.3772C55.6152 74.3772 56.3034 74.6256 56.8502 75.1223C57.4017 75.6191 57.6956 76.2639 57.7321 77.0569H56.5358C56.4993 76.5784 56.317 76.1864 55.9889 75.8811C55.6653 75.5712 55.2643 75.4163 54.7858 75.4163C54.1432 75.4163 53.6442 75.6487 53.2887 76.1135C52.9378 76.5738 52.7623 77.2415 52.7623 78.1165V78.3557C52.7623 79.2079 52.9378 79.8642 53.2887 80.3245C53.6396 80.7847 54.1409 81.0149 54.7926 81.0149ZM61.4577 78.759H60.5348V81.9104H59.2633V74.5139H60.5348V77.6448H61.362L63.8502 74.5139H65.3815L62.4557 78.0686L65.6276 81.9104H64.0211L61.4577 78.759ZM69.1344 80.0579L70.8571 74.5139H72.2106L69.237 83.052C68.7767 84.2825 68.0452 84.8977 67.0426 84.8977L66.8034 84.8772L66.3317 84.7883V83.7629L66.6735 83.7903C67.1019 83.7903 67.4345 83.7037 67.6715 83.5305C67.9131 83.3573 68.1113 83.0406 68.2663 82.5803L68.5465 81.8284L65.9079 74.5139H67.2887L69.1344 80.0579Z" fill="black"/>
</svg>
