<svg width="151" height="203" viewBox="0 0 151 203" fill="none" xmlns="http://www.w3.org/2000/svg">
<path d="M63.75 112H6.38672V102.215L34.8047 71.2188C38.9062 66.6484 41.8164 62.8398 43.5352 59.793C45.293 56.707 46.1719 53.6211 46.1719 50.5352C46.1719 46.4727 45.0195 43.1914 42.7148 40.6914C40.4492 38.1914 37.3828 36.9414 33.5156 36.9414C28.9062 36.9414 25.332 38.3477 22.793 41.1602C20.2539 43.9727 18.9844 47.8203 18.9844 52.7031H4.74609C4.74609 47.5078 5.91797 42.8398 8.26172 38.6992C10.6445 34.5195 14.0234 31.2773 18.3984 28.9727C22.8125 26.668 27.8906 25.5156 33.6328 25.5156C41.9141 25.5156 48.4375 27.6055 53.2031 31.7852C58.0078 35.9258 60.4102 41.668 60.4102 49.0117C60.4102 53.2695 59.1992 57.7422 56.7773 62.4297C54.3945 67.0781 50.4688 72.3711 45 78.3086L24.1406 100.633H63.75V112Z" fill="#ADADAD" fill-opacity="0.39"/>
<path d="M92.2354 107.773C91.4198 107.773 90.6754 107.247 90.3985 106.481C90.1219 105.715 90.3645 104.826 90.9962 104.31C91.6478 103.777 92.5871 103.727 93.2948 104.179C93.9571 104.601 94.3053 105.415 94.156 106.186C93.9796 107.096 93.1633 107.773 92.2354 107.773Z" fill="#77675A"/>
<path d="M148.079 73.2278H134.402V56.7828C134.402 52.4914 130.911 49 126.62 49H57.7826C53.4914 49 50 52.4914 50 56.7828V99.9915C50 104.283 53.4914 107.774 57.7826 107.774H83.369C84.4481 107.774 85.3228 106.899 85.3228 105.82C85.3228 104.741 84.4481 103.867 83.369 103.867H57.7826C55.6458 103.867 53.9075 102.128 53.9075 99.9915V56.7828C53.9075 54.6458 55.6458 52.9075 57.7826 52.9075H126.62C128.757 52.9075 130.495 54.646 130.495 56.7828V73.2278H125.806V70.3251C125.806 69.2462 124.931 68.3713 123.852 68.3713C118.988 68.3713 115.031 64.4142 115.031 59.5503C115.031 58.4714 114.156 57.5965 113.077 57.5965H71.3251C70.246 57.5965 69.3713 58.4714 69.3713 59.5503C69.3713 64.4144 65.4142 68.3713 60.5503 68.3713C59.4712 68.3713 58.5965 69.2462 58.5965 70.3251V86.4488C58.5965 87.5277 59.4712 88.4026 60.5503 88.4026C65.4142 88.4026 69.3713 92.3597 69.3713 97.2236C69.3713 98.3025 70.246 99.1773 71.3251 99.1773H111.056V103.866H101.033C99.9542 103.866 99.0795 104.741 99.0795 105.82C99.0795 106.899 99.9542 107.774 101.033 107.774H148.079C149.158 107.774 150.032 106.899 150.032 105.82V75.1813C150.032 74.1024 149.158 73.2278 148.079 73.2278ZM114.964 87.3481H146.125V93.6535H114.964V87.3481ZM146.125 83.4406H114.964V77.1353H146.125V83.4406ZM62.504 84.6449V72.1292C67.9609 71.2849 72.2847 66.9611 73.1292 61.504H111.273C112.118 66.9611 116.441 71.2849 121.898 72.1292V73.2278H113.01C111.931 73.2278 111.056 74.1024 111.056 75.1815V95.27H73.1292C72.2847 89.813 67.9609 85.4893 62.504 84.6449ZM146.125 103.867H114.964V97.5612H146.125V103.867Z" fill="#77675A"/>
<path d="M92.2012 91.5645C84.9352 91.5645 79.0237 85.653 79.0237 78.387C79.0237 71.121 84.9352 65.2095 92.2012 65.2095C99.4672 65.2095 105.379 71.121 105.379 78.387C105.379 85.653 99.4672 91.5645 92.2012 91.5645ZM92.2012 69.117C87.0898 69.117 82.9312 73.2756 82.9312 78.387C82.9312 83.4984 87.0898 87.657 92.2012 87.657C97.3126 87.657 101.471 83.4984 101.471 78.387C101.471 73.2756 97.3126 69.117 92.2012 69.117Z" fill="#77675A"/>
<path d="M32.0742 149.02C32.0742 150.691 31.793 152.152 31.2305 153.402C30.668 154.645 29.8711 155.594 28.8398 156.25C27.8086 156.906 26.6055 157.234 25.2305 157.234C23.8867 157.234 22.6953 156.906 21.6562 156.25C20.6172 155.586 19.8086 154.645 19.2305 153.426C18.6602 152.199 18.3672 150.781 18.3516 149.172V147.941C18.3516 146.301 18.6367 144.852 19.207 143.594C19.7773 142.336 20.582 141.375 21.6211 140.711C22.668 140.039 23.8633 139.703 25.207 139.703C26.5742 139.703 27.7773 140.035 28.8164 140.699C29.8633 141.355 30.668 142.312 31.2305 143.57C31.793 144.82 32.0742 146.277 32.0742 147.941V149.02ZM29.8359 147.918C29.8359 145.895 29.4297 144.344 28.6172 143.266C27.8047 142.18 26.668 141.637 25.207 141.637C23.7852 141.637 22.6641 142.18 21.8438 143.266C21.0312 144.344 20.6133 145.844 20.5898 147.766V149.02C20.5898 150.98 21 152.523 21.8203 153.648C22.6484 154.766 23.7852 155.324 25.2305 155.324C26.6836 155.324 27.8086 154.797 28.6055 153.742C29.4023 152.68 29.8125 151.16 29.8359 149.184V147.918ZM34.6406 150.895C34.6406 148.777 35.0508 147.113 35.8711 145.902C36.6914 144.691 37.8164 144.086 39.2461 144.086C39.9102 144.086 40.4922 144.199 40.9922 144.426V139H43.1602V144.496C43.707 144.223 44.3477 144.086 45.082 144.086C46.5195 144.086 47.6484 144.691 48.4688 145.902C49.2891 147.113 49.6992 148.859 49.6992 151.141C49.6992 153.008 49.2891 154.492 48.4688 155.594C47.6562 156.695 46.5352 157.246 45.1055 157.246C44.3477 157.246 43.6992 157.121 43.1602 156.871V161.875H40.9922V156.906C40.4766 157.133 39.8867 157.246 39.2227 157.246C37.8008 157.246 36.6797 156.695 35.8594 155.594C35.0469 154.492 34.6406 152.984 34.6406 151.07V150.895ZM47.5312 150.895C47.5312 149.301 47.2578 148.066 46.7109 147.191C46.1641 146.309 45.4102 145.867 44.4492 145.867C43.957 145.867 43.5273 145.945 43.1602 146.102V155.277C43.5117 155.41 43.9492 155.477 44.4727 155.477C45.4414 155.477 46.1914 155.102 46.7227 154.352C47.2617 153.602 47.5312 152.449 47.5312 150.895ZM36.8086 151.141C36.8086 152.562 37.0625 153.641 37.5703 154.375C38.0781 155.109 38.8086 155.477 39.7617 155.477C40.2148 155.477 40.625 155.406 40.9922 155.266V146.066C40.6641 145.934 40.2617 145.867 39.7852 145.867C38.832 145.867 38.0977 146.293 37.582 147.145C37.0664 147.996 36.8086 149.328 36.8086 151.141ZM51.9492 150.543C51.9492 149.301 52.1914 148.184 52.6758 147.191C53.168 146.199 53.8477 145.434 54.7148 144.895C55.5898 144.355 56.5859 144.086 57.7031 144.086C59.4297 144.086 60.8242 144.684 61.8867 145.879C62.957 147.074 63.4922 148.664 63.4922 150.648V150.801C63.4922 152.035 63.2539 153.145 62.7773 154.129C62.3086 155.105 61.6328 155.867 60.75 156.414C59.875 156.961 58.8672 157.234 57.7266 157.234C56.0078 157.234 54.6133 156.637 53.543 155.441C52.4805 154.246 51.9492 152.664 51.9492 150.695V150.543ZM54.1289 150.801C54.1289 152.207 54.4531 153.336 55.1016 154.188C55.7578 155.039 56.6328 155.465 57.7266 155.465C58.8281 155.465 59.7031 155.035 60.3516 154.176C61 153.309 61.3242 152.098 61.3242 150.543C61.3242 149.152 60.9922 148.027 60.3281 147.168C59.6719 146.301 58.7969 145.867 57.7031 145.867C56.6328 145.867 55.7695 146.293 55.1133 147.145C54.457 147.996 54.1289 149.215 54.1289 150.801ZM76.9219 150.801C76.9219 152.73 76.4805 154.285 75.5977 155.465C74.7148 156.645 73.5195 157.234 72.0117 157.234C70.4727 157.234 69.2617 156.746 68.3789 155.77V161.875H66.2109V144.32H68.1914L68.2969 145.727C69.1797 144.633 70.4062 144.086 71.9766 144.086C73.5 144.086 74.7031 144.66 75.5859 145.809C76.4766 146.957 76.9219 148.555 76.9219 150.602V150.801ZM74.7539 150.555C74.7539 149.125 74.4492 147.996 73.8398 147.168C73.2305 146.34 72.3945 145.926 71.332 145.926C70.0195 145.926 69.0352 146.508 68.3789 147.672V153.73C69.0273 154.887 70.0195 155.465 71.3555 155.465C72.3945 155.465 73.2188 155.055 73.8281 154.234C74.4453 153.406 74.7539 152.18 74.7539 150.555ZM86.9883 154.129L91.3008 144.32H94.0078V157H91.8398V147.777L87.7383 157H86.2383L82.0547 147.578V157H79.8867V144.32H82.6992L86.9883 154.129ZM105.703 144.32H107.871V157H105.703V147.754L99.8555 157H97.6875V144.32H99.8555V153.578L105.703 144.32ZM120.773 146.078H116.52V157H114.352V146.078H110.18V144.32H120.773V146.078ZM127.207 157.234C125.488 157.234 124.09 156.672 123.012 155.547C121.934 154.414 121.395 152.902 121.395 151.012V150.613C121.395 149.355 121.633 148.234 122.109 147.25C122.594 146.258 123.266 145.484 124.125 144.93C124.992 144.367 125.93 144.086 126.938 144.086C128.586 144.086 129.867 144.629 130.781 145.715C131.695 146.801 132.152 148.355 132.152 150.379V151.281H123.562C123.594 152.531 123.957 153.543 124.652 154.316C125.355 155.082 126.246 155.465 127.324 155.465C128.09 155.465 128.738 155.309 129.27 154.996C129.801 154.684 130.266 154.27 130.664 153.754L131.988 154.785C130.926 156.418 129.332 157.234 127.207 157.234ZM126.938 145.867C126.062 145.867 125.328 146.188 124.734 146.828C124.141 147.461 123.773 148.352 123.633 149.5H129.984V149.336C129.922 148.234 129.625 147.383 129.094 146.781C128.562 146.172 127.844 145.867 126.938 145.867ZM34.125 185H31.957V174.113H26.1211V185H23.9414V172.32H34.125V185ZM37.0312 178.543C37.0312 177.301 37.2734 176.184 37.7578 175.191C38.25 174.199 38.9297 173.434 39.7969 172.895C40.6719 172.355 41.668 172.086 42.7852 172.086C44.5117 172.086 45.9062 172.684 46.9688 173.879C48.0391 175.074 48.5742 176.664 48.5742 178.648V178.801C48.5742 180.035 48.3359 181.145 47.8594 182.129C47.3906 183.105 46.7148 183.867 45.832 184.414C44.957 184.961 43.9492 185.234 42.8086 185.234C41.0898 185.234 39.6953 184.637 38.625 183.441C37.5625 182.246 37.0312 180.664 37.0312 178.695V178.543ZM39.2109 178.801C39.2109 180.207 39.5352 181.336 40.1836 182.188C40.8398 183.039 41.7148 183.465 42.8086 183.465C43.9102 183.465 44.7852 183.035 45.4336 182.176C46.082 181.309 46.4062 180.098 46.4062 178.543C46.4062 177.152 46.0742 176.027 45.4102 175.168C44.7539 174.301 43.8789 173.867 42.7852 173.867C41.7148 173.867 40.8516 174.293 40.1953 175.145C39.5391 175.996 39.2109 177.215 39.2109 178.801ZM50.3438 183.23L51.0938 182.305C51.9375 181.211 52.418 179.57 52.5352 177.383L52.7344 172.32H60.9023V183.23H62.5312V188.727H60.3633V185H51.5156V188.727H49.3477L49.3594 183.23H50.3438ZM52.9102 183.23H58.7344V174.324H54.832L54.7031 177.348C54.5703 179.871 53.9727 181.832 52.9102 183.23ZM75.3047 185H73.1367V174.113H67.3008V185H65.1211V172.32H75.3047V185ZM86.9883 172.32H89.1562V185H86.9883V175.754L81.1406 185H78.9727V172.32H81.1406V181.578L86.9883 172.32ZM97.7227 183.465C98.4961 183.465 99.1719 183.23 99.75 182.762C100.328 182.293 100.648 181.707 100.711 181.004H102.762C102.723 181.73 102.473 182.422 102.012 183.078C101.551 183.734 100.934 184.258 100.16 184.648C99.3945 185.039 98.582 185.234 97.7227 185.234C95.9961 185.234 94.6211 184.66 93.5977 183.512C92.582 182.355 92.0742 180.777 92.0742 178.777V178.414C92.0742 177.18 92.3008 176.082 92.7539 175.121C93.207 174.16 93.8555 173.414 94.6992 172.883C95.5508 172.352 96.5547 172.086 97.7109 172.086C99.1328 172.086 100.312 172.512 101.25 173.363C102.195 174.215 102.699 175.32 102.762 176.68H100.711C100.648 175.859 100.336 175.188 99.7734 174.664C99.2188 174.133 98.5312 173.867 97.7109 173.867C96.6094 173.867 95.7539 174.266 95.1445 175.062C94.543 175.852 94.2422 176.996 94.2422 178.496V178.906C94.2422 180.367 94.543 181.492 95.1445 182.281C95.7461 183.07 96.6055 183.465 97.7227 183.465ZM109.148 179.598H107.566V185H105.387V172.32H107.566V177.688H108.984L113.25 172.32H115.875L110.859 178.414L116.297 185H113.543L109.148 179.598ZM122.309 181.824L125.262 172.32H127.582L122.484 186.957C121.695 189.066 120.441 190.121 118.723 190.121L118.312 190.086L117.504 189.934V188.176L118.09 188.223C118.824 188.223 119.395 188.074 119.801 187.777C120.215 187.48 120.555 186.938 120.82 186.148L121.301 184.859L116.777 172.32H119.145L122.309 181.824Z" fill="black"/>
</svg>
