<svg width="218" height="203" viewBox="0 0 218 203" fill="none" xmlns="http://www.w3.org/2000/svg">
<path d="M75.8516 62.8398H84.5234C88.8984 62.8008 92.3555 61.668 94.8945 59.4414C97.4727 57.2148 98.7617 53.9922 98.7617 49.7734C98.7617 45.7109 97.6875 42.5664 95.5391 40.3398C93.4297 38.0742 90.1875 36.9414 85.8125 36.9414C81.9844 36.9414 78.8398 38.0547 76.3789 40.2812C73.918 42.4687 72.6875 45.3398 72.6875 48.8945H58.4492C58.4492 44.5195 59.6016 40.5352 61.9062 36.9414C64.25 33.3477 67.4922 30.5547 71.6328 28.5625C75.8125 26.5312 80.4805 25.5156 85.6367 25.5156C94.1523 25.5156 100.832 27.6641 105.676 31.9609C110.559 36.2188 113 42.1562 113 49.7734C113 53.6016 111.77 57.2148 109.309 60.6133C106.887 63.9727 103.742 66.5117 99.875 68.2305C104.562 69.832 108.117 72.3516 110.539 75.7891C113 79.2266 114.23 83.3281 114.23 88.0938C114.23 95.75 111.594 101.844 106.32 106.375C101.086 110.906 94.1914 113.172 85.6367 113.172C77.4336 113.172 70.7148 110.984 65.4805 106.609C60.2461 102.234 57.6289 96.4141 57.6289 89.1484H71.8672C71.8672 92.8984 73.1172 95.9453 75.6172 98.2891C78.1562 100.633 81.5547 101.805 85.8125 101.805C90.2266 101.805 93.7031 100.633 96.2422 98.2891C98.7812 95.9453 100.051 92.5469 100.051 88.0938C100.051 83.6016 98.7227 80.1445 96.0664 77.7227C93.4102 75.3008 89.4648 74.0898 84.2305 74.0898H75.8516V62.8398Z" fill="#ADADAD" fill-opacity="0.39"/>
<path d="M150.958 83.9009C149.507 82.3902 147.757 81.5825 145.902 81.5825C144.062 81.5825 142.297 82.3752 140.787 83.8859L136.06 88.5975C135.671 88.3881 135.282 88.1936 134.908 87.9992C134.37 87.73 133.861 87.4757 133.428 87.2065C129 84.3945 124.977 80.7299 121.118 75.9884C119.248 73.6251 117.992 71.6358 117.079 69.6165C118.306 68.4947 119.442 67.328 120.549 66.2062C120.968 65.7874 121.387 65.3536 121.806 64.9348C124.947 61.7938 124.947 57.7253 121.806 54.5843L117.722 50.5009C117.259 50.0372 116.78 49.5586 116.331 49.0799C115.434 48.1526 114.492 47.1953 113.519 46.2979C112.068 44.862 110.333 44.0991 108.509 44.0991C106.684 44.0991 104.919 44.862 103.423 46.2979C103.408 46.3128 103.408 46.3128 103.393 46.3278L98.3076 51.4582C96.393 53.3727 95.3011 55.7061 95.0618 58.4134C94.7028 62.781 95.9892 66.8494 96.9763 69.5118C99.3994 76.0482 103.019 82.106 108.419 88.5975C114.97 96.4202 122.853 102.598 131.857 106.95C135.297 108.581 139.889 110.51 145.02 110.839C145.334 110.854 145.663 110.869 145.962 110.869C149.417 110.869 152.319 109.628 154.592 107.16C154.607 107.13 154.637 107.115 154.652 107.085C155.43 106.143 156.327 105.29 157.27 104.378C157.913 103.764 158.571 103.121 159.214 102.448C160.695 100.907 161.473 99.1126 161.473 97.2728C161.473 95.4181 160.68 93.6382 159.169 92.1424L150.958 83.9009ZM156.312 99.651C156.298 99.666 156.298 99.651 156.312 99.651C155.729 100.279 155.131 100.848 154.488 101.476C153.515 102.403 152.528 103.375 151.601 104.467C150.09 106.083 148.31 106.846 145.977 106.846C145.753 106.846 145.513 106.846 145.289 106.831C140.847 106.546 136.718 104.811 133.622 103.331C125.156 99.2322 117.722 93.4138 111.545 86.0398C106.444 79.8923 103.034 74.2084 100.776 68.1058C99.3845 64.3814 98.8759 61.4797 99.1003 58.7425C99.2499 56.9924 99.923 55.5416 101.164 54.3001L106.265 49.1996C106.998 48.5116 107.776 48.1376 108.538 48.1376C109.481 48.1376 110.244 48.706 110.722 49.1846C110.737 49.1996 110.752 49.2146 110.767 49.2295C111.68 50.0821 112.547 50.9646 113.459 51.9069C113.923 52.3855 114.402 52.8642 114.88 53.3578L118.964 57.4412C120.549 59.0266 120.549 60.4925 118.964 62.078C118.53 62.5117 118.111 62.9455 117.677 63.3643C116.421 64.6506 115.224 65.8472 113.923 67.0139C113.893 67.0438 113.863 67.0588 113.848 67.0887C112.562 68.375 112.801 69.6315 113.071 70.484C113.086 70.5289 113.1 70.5738 113.115 70.6187C114.177 73.1913 115.673 75.6144 117.947 78.5012L117.962 78.5162C122.09 83.6017 126.442 87.5654 131.244 90.6018C131.857 90.9907 132.485 91.3048 133.084 91.6039C133.622 91.8732 134.131 92.1275 134.564 92.3967C134.624 92.4266 134.684 92.4715 134.744 92.5014C135.252 92.7557 135.731 92.8753 136.225 92.8753C137.466 92.8753 138.244 92.0975 138.498 91.8433L143.614 86.7278C144.122 86.2193 144.93 85.606 145.872 85.606C146.8 85.606 147.562 86.1894 148.026 86.6979C148.041 86.7129 148.041 86.7129 148.056 86.7278L156.298 94.9694C157.838 96.495 157.838 98.0656 156.312 99.651Z" fill="#77675A"/>
<path d="M133.248 56.8579C137.167 57.516 140.727 59.3707 143.568 62.2127C146.41 65.0546 148.25 68.6144 148.923 72.5333C149.088 73.5205 149.94 74.2085 150.913 74.2085C151.032 74.2085 151.137 74.1936 151.257 74.1786C152.363 73.9991 153.096 72.9521 152.917 71.8452C152.109 67.1037 149.865 62.781 146.44 59.3558C143.015 55.9305 138.692 53.6869 133.951 52.8792C132.844 52.6997 131.812 53.4326 131.617 54.5245C131.423 55.6164 132.141 56.6784 133.248 56.8579Z" fill="#77675A"/>
<path d="M165.735 71.2619C164.404 63.4541 160.725 56.3494 155.071 50.6954C149.417 45.0415 142.312 41.362 134.504 40.0308C133.412 39.8363 132.38 40.5842 132.186 41.6761C132.006 42.783 132.739 43.815 133.846 44.0095C140.816 45.1911 147.173 48.4967 152.229 53.5374C157.285 58.593 160.575 64.9499 161.757 71.9201C161.921 72.9072 162.774 73.5953 163.746 73.5953C163.866 73.5953 163.971 73.5803 164.09 73.5654C165.182 73.4008 165.93 72.3538 165.735 71.2619Z" fill="#77675A"/>
<path d="M19.1992 139.938L24.7773 153.859L30.3555 139.938H33.2734V157H31.0234V150.355L31.2344 143.184L25.6328 157H23.9102L18.3203 143.219L18.543 150.355V157H16.293V139.938H19.1992ZM39.2734 148.691H42.5664C44.0039 148.707 45.1406 149.082 45.9766 149.816C46.8125 150.551 47.2305 151.547 47.2305 152.805C47.2305 154.07 46.8008 155.086 45.9414 155.852C45.082 156.617 43.9258 157 42.4727 157H37.1055V144.32H39.2734V148.691ZM51.7539 157H49.5742V144.32H51.7539V157ZM39.2734 150.461V155.23H42.4961C43.3086 155.23 43.9375 155.023 44.3828 154.609C44.8281 154.188 45.0508 153.613 45.0508 152.887C45.0508 152.184 44.832 151.609 44.3945 151.164C43.9648 150.711 43.3594 150.477 42.5781 150.461H39.2734ZM71.8633 157H69.6953V146.113H63.8594V157H61.6797V144.32H71.8633V157ZM74.7695 150.543C74.7695 149.301 75.0117 148.184 75.4961 147.191C75.9883 146.199 76.668 145.434 77.5352 144.895C78.4102 144.355 79.4062 144.086 80.5234 144.086C82.25 144.086 83.6445 144.684 84.707 145.879C85.7773 147.074 86.3125 148.664 86.3125 150.648V150.801C86.3125 152.035 86.0742 153.145 85.5977 154.129C85.1289 155.105 84.4531 155.867 83.5703 156.414C82.6953 156.961 81.6875 157.234 80.5469 157.234C78.8281 157.234 77.4336 156.637 76.3633 155.441C75.3008 154.246 74.7695 152.664 74.7695 150.695V150.543ZM76.9492 150.801C76.9492 152.207 77.2734 153.336 77.9219 154.188C78.5781 155.039 79.4531 155.465 80.5469 155.465C81.6484 155.465 82.5234 155.035 83.1719 154.176C83.8203 153.309 84.1445 152.098 84.1445 150.543C84.1445 149.152 83.8125 148.027 83.1484 147.168C82.4922 146.301 81.6172 145.867 80.5234 145.867C79.4531 145.867 78.5898 146.293 77.9336 147.145C77.2773 147.996 76.9492 149.215 76.9492 150.801ZM96.0039 147.789C96.0039 147.195 95.7773 146.727 95.3242 146.383C94.8711 146.031 94.25 145.855 93.4609 145.855C92.6953 145.855 92.0547 146.055 91.5391 146.453C91.0312 146.852 90.7773 147.32 90.7773 147.859H88.6211C88.6211 146.758 89.082 145.855 90.0039 145.152C90.9258 144.449 92.0781 144.098 93.4609 144.098C94.9453 144.098 96.1016 144.418 96.9297 145.059C97.7578 145.691 98.1719 146.598 98.1719 147.777C98.1719 148.348 98 148.871 97.6562 149.348C97.3125 149.824 96.8242 150.203 96.1914 150.484C97.668 150.984 98.4062 151.969 98.4062 153.438C98.4062 154.602 97.957 155.523 97.0586 156.203C96.1602 156.883 94.9609 157.223 93.4609 157.223C92 157.223 90.793 156.867 89.8398 156.156C88.8945 155.438 88.4219 154.469 88.4219 153.25H90.5781C90.5781 153.867 90.8516 154.398 91.3984 154.844C91.9531 155.281 92.6406 155.5 93.4609 155.5C94.2891 155.5 94.957 155.309 95.4648 154.926C95.9727 154.543 96.2266 154.047 96.2266 153.438C96.2266 152.727 96.0117 152.219 95.582 151.914C95.1602 151.602 94.5 151.445 93.6016 151.445H91.4336V149.617H93.7891C95.2656 149.578 96.0039 148.969 96.0039 147.789ZM101.418 157V144.32H106.363C108.051 144.32 109.344 144.617 110.242 145.211C111.148 145.797 111.602 146.66 111.602 147.801C111.602 148.387 111.426 148.918 111.074 149.395C110.723 149.863 110.203 150.223 109.516 150.473C110.281 150.652 110.895 151.004 111.355 151.527C111.824 152.051 112.059 152.676 112.059 153.402C112.059 154.566 111.629 155.457 110.77 156.074C109.918 156.691 108.711 157 107.148 157H101.418ZM103.586 151.434V155.254H107.172C108.078 155.254 108.754 155.086 109.199 154.75C109.652 154.414 109.879 153.941 109.879 153.332C109.879 152.066 108.949 151.434 107.09 151.434H103.586ZM103.586 149.699H106.387C108.418 149.699 109.434 149.105 109.434 147.918C109.434 146.73 108.473 146.117 106.551 146.078H103.586V149.699ZM114.355 150.543C114.355 149.301 114.598 148.184 115.082 147.191C115.574 146.199 116.254 145.434 117.121 144.895C117.996 144.355 118.992 144.086 120.109 144.086C121.836 144.086 123.23 144.684 124.293 145.879C125.363 147.074 125.898 148.664 125.898 150.648V150.801C125.898 152.035 125.66 153.145 125.184 154.129C124.715 155.105 124.039 155.867 123.156 156.414C122.281 156.961 121.273 157.234 120.133 157.234C118.414 157.234 117.02 156.637 115.949 155.441C114.887 154.246 114.355 152.664 114.355 150.695V150.543ZM116.535 150.801C116.535 152.207 116.859 153.336 117.508 154.188C118.164 155.039 119.039 155.465 120.133 155.465C121.234 155.465 122.109 155.035 122.758 154.176C123.406 153.309 123.73 152.098 123.73 150.543C123.73 149.152 123.398 148.027 122.734 147.168C122.078 146.301 121.203 145.867 120.109 145.867C119.039 145.867 118.176 146.293 117.52 147.145C116.863 147.996 116.535 149.215 116.535 150.801ZM138.977 157H136.809V151.586H130.984V157H128.805V144.32H130.984V149.816H136.809V144.32H138.977V157ZM150.672 144.32H152.84V157H150.672V147.754L144.824 157H142.656V144.32H144.824V153.578L150.672 144.32ZM163.621 154.129L167.934 144.32H170.641V157H168.473V147.777L164.371 157H162.871L158.688 147.578V157H156.52V144.32H159.332L163.621 154.129ZM187.059 147.789C187.059 147.195 186.832 146.727 186.379 146.383C185.926 146.031 185.305 145.855 184.516 145.855C183.75 145.855 183.109 146.055 182.594 146.453C182.086 146.852 181.832 147.32 181.832 147.859H179.676C179.676 146.758 180.137 145.855 181.059 145.152C181.98 144.449 183.133 144.098 184.516 144.098C186 144.098 187.156 144.418 187.984 145.059C188.812 145.691 189.227 146.598 189.227 147.777C189.227 148.348 189.055 148.871 188.711 149.348C188.367 149.824 187.879 150.203 187.246 150.484C188.723 150.984 189.461 151.969 189.461 153.438C189.461 154.602 189.012 155.523 188.113 156.203C187.215 156.883 186.016 157.223 184.516 157.223C183.055 157.223 181.848 156.867 180.895 156.156C179.949 155.438 179.477 154.469 179.477 153.25H181.633C181.633 153.867 181.906 154.398 182.453 154.844C183.008 155.281 183.695 155.5 184.516 155.5C185.344 155.5 186.012 155.309 186.52 154.926C187.027 154.543 187.281 154.047 187.281 153.438C187.281 152.727 187.066 152.219 186.637 151.914C186.215 151.602 185.555 151.445 184.656 151.445H182.488V149.617H184.844C186.32 149.578 187.059 148.969 187.059 147.789ZM200.102 157C199.977 156.75 199.875 156.305 199.797 155.664C198.789 156.711 197.586 157.234 196.188 157.234C194.938 157.234 193.91 156.883 193.105 156.18C192.309 155.469 191.91 154.57 191.91 153.484C191.91 152.164 192.41 151.141 193.41 150.414C194.418 149.68 195.832 149.312 197.652 149.312H199.762V148.316C199.762 147.559 199.535 146.957 199.082 146.512C198.629 146.059 197.961 145.832 197.078 145.832C196.305 145.832 195.656 146.027 195.133 146.418C194.609 146.809 194.348 147.281 194.348 147.836H192.168C192.168 147.203 192.391 146.594 192.836 146.008C193.289 145.414 193.898 144.945 194.664 144.602C195.438 144.258 196.285 144.086 197.207 144.086C198.668 144.086 199.812 144.453 200.641 145.188C201.469 145.914 201.898 146.918 201.93 148.199V154.035C201.93 155.199 202.078 156.125 202.375 156.812V157H200.102ZM196.504 155.348C197.184 155.348 197.828 155.172 198.438 154.82C199.047 154.469 199.488 154.012 199.762 153.449V150.848H198.062C195.406 150.848 194.078 151.625 194.078 153.18C194.078 153.859 194.305 154.391 194.758 154.773C195.211 155.156 195.793 155.348 196.504 155.348ZM31.2461 185H29.0781V179.586H23.2539V185H21.0742V172.32H23.2539V177.816H29.0781V172.32H31.2461V185ZM40 185.234C38.2812 185.234 36.8828 184.672 35.8047 183.547C34.7266 182.414 34.1875 180.902 34.1875 179.012V178.613C34.1875 177.355 34.4258 176.234 34.9023 175.25C35.3867 174.258 36.0586 173.484 36.918 172.93C37.7852 172.367 38.7227 172.086 39.7305 172.086C41.3789 172.086 42.6602 172.629 43.5742 173.715C44.4883 174.801 44.9453 176.355 44.9453 178.379V179.281H36.3555C36.3867 180.531 36.75 181.543 37.4453 182.316C38.1484 183.082 39.0391 183.465 40.1172 183.465C40.8828 183.465 41.5312 183.309 42.0625 182.996C42.5938 182.684 43.0586 182.27 43.457 181.754L44.7812 182.785C43.7188 184.418 42.125 185.234 40 185.234ZM39.7305 173.867C38.8555 173.867 38.1211 174.188 37.5273 174.828C36.9336 175.461 36.5664 176.352 36.4258 177.5H42.7773V177.336C42.7148 176.234 42.418 175.383 41.8867 174.781C41.3555 174.172 40.6367 173.867 39.7305 173.867ZM52.5508 183.465C53.3242 183.465 54 183.23 54.5781 182.762C55.1562 182.293 55.4766 181.707 55.5391 181.004H57.5898C57.5508 181.73 57.3008 182.422 56.8398 183.078C56.3789 183.734 55.7617 184.258 54.9883 184.648C54.2227 185.039 53.4102 185.234 52.5508 185.234C50.8242 185.234 49.4492 184.66 48.4258 183.512C47.4102 182.355 46.9023 180.777 46.9023 178.777V178.414C46.9023 177.18 47.1289 176.082 47.582 175.121C48.0352 174.16 48.6836 173.414 49.5273 172.883C50.3789 172.352 51.3828 172.086 52.5391 172.086C53.9609 172.086 55.1406 172.512 56.0781 173.363C57.0234 174.215 57.5273 175.32 57.5898 176.68H55.5391C55.4766 175.859 55.1641 175.188 54.6016 174.664C54.0469 174.133 53.3594 173.867 52.5391 173.867C51.4375 173.867 50.582 174.266 49.9727 175.062C49.3711 175.852 49.0703 176.996 49.0703 178.496V178.906C49.0703 180.367 49.3711 181.492 49.9727 182.281C50.5742 183.07 51.4336 183.465 52.5508 183.465ZM63.9766 179.598H62.3945V185H60.2148V172.32H62.3945V177.688H63.8125L68.0781 172.32H70.7031L65.6875 178.414L71.125 185H68.3711L63.9766 179.598ZM72.1562 178.543C72.1562 177.301 72.3984 176.184 72.8828 175.191C73.375 174.199 74.0547 173.434 74.9219 172.895C75.7969 172.355 76.793 172.086 77.9102 172.086C79.6367 172.086 81.0312 172.684 82.0938 173.879C83.1641 175.074 83.6992 176.664 83.6992 178.648V178.801C83.6992 180.035 83.4609 181.145 82.9844 182.129C82.5156 183.105 81.8398 183.867 80.957 184.414C80.082 184.961 79.0742 185.234 77.9336 185.234C76.2148 185.234 74.8203 184.637 73.75 183.441C72.6875 182.246 72.1562 180.664 72.1562 178.695V178.543ZM74.3359 178.801C74.3359 180.207 74.6602 181.336 75.3086 182.188C75.9648 183.039 76.8398 183.465 77.9336 183.465C79.0352 183.465 79.9102 183.035 80.5586 182.176C81.207 181.309 81.5312 180.098 81.5312 178.543C81.5312 177.152 81.1992 176.027 80.5352 175.168C79.8789 174.301 79.0039 173.867 77.9102 173.867C76.8398 173.867 75.9766 174.293 75.3203 175.145C74.6641 175.996 74.3359 177.215 74.3359 178.801ZM96.625 172.32V185H94.4453V174.113H90.1328L89.875 178.859C89.7344 181.039 89.3672 182.598 88.7734 183.535C88.1875 184.473 87.2539 184.961 85.9727 185H85.1055V183.09L85.7266 183.043C86.4297 182.965 86.9336 182.559 87.2383 181.824C87.543 181.09 87.7383 179.73 87.8242 177.746L88.0586 172.32H96.625ZM102.473 176.691H105.766C107.203 176.707 108.34 177.082 109.176 177.816C110.012 178.551 110.43 179.547 110.43 180.805C110.43 182.07 110 183.086 109.141 183.852C108.281 184.617 107.125 185 105.672 185H100.305V172.32H102.473V176.691ZM102.473 178.461V183.23H105.695C106.508 183.23 107.137 183.023 107.582 182.609C108.027 182.188 108.25 181.613 108.25 180.887C108.25 180.184 108.031 179.609 107.594 179.164C107.164 178.711 106.559 178.477 105.777 178.461H102.473ZM117.086 179.598H115.504V185H113.324V172.32H115.504V177.688H116.922L121.188 172.32H123.812L118.797 178.414L124.234 185H121.48L117.086 179.598ZM125.266 178.543C125.266 177.301 125.508 176.184 125.992 175.191C126.484 174.199 127.164 173.434 128.031 172.895C128.906 172.355 129.902 172.086 131.02 172.086C132.746 172.086 134.141 172.684 135.203 173.879C136.273 175.074 136.809 176.664 136.809 178.648V178.801C136.809 180.035 136.57 181.145 136.094 182.129C135.625 183.105 134.949 183.867 134.066 184.414C133.191 184.961 132.184 185.234 131.043 185.234C129.324 185.234 127.93 184.637 126.859 183.441C125.797 182.246 125.266 180.664 125.266 178.695V178.543ZM127.445 178.801C127.445 180.207 127.77 181.336 128.418 182.188C129.074 183.039 129.949 183.465 131.043 183.465C132.145 183.465 133.02 183.035 133.668 182.176C134.316 181.309 134.641 180.098 134.641 178.543C134.641 177.152 134.309 176.027 133.645 175.168C132.988 174.301 132.113 173.867 131.02 173.867C129.949 173.867 129.086 174.293 128.43 175.145C127.773 175.996 127.445 177.215 127.445 178.801ZM145.375 183.23L146.125 182.305C146.969 181.211 147.449 179.57 147.566 177.383L147.766 172.32H155.934V183.23H157.562V188.727H155.395V185H146.547V188.727H144.379L144.391 183.23H145.375ZM147.941 183.23H153.766V174.324H149.863L149.734 177.348C149.602 179.871 149.004 181.832 147.941 183.23ZM170.324 185H168.156V179.586H162.332V185H160.152V172.32H162.332V177.816H168.156V172.32H170.324V185ZM179.078 185.234C177.359 185.234 175.961 184.672 174.883 183.547C173.805 182.414 173.266 180.902 173.266 179.012V178.613C173.266 177.355 173.504 176.234 173.98 175.25C174.465 174.258 175.137 173.484 175.996 172.93C176.863 172.367 177.801 172.086 178.809 172.086C180.457 172.086 181.738 172.629 182.652 173.715C183.566 174.801 184.023 176.355 184.023 178.379V179.281H175.434C175.465 180.531 175.828 181.543 176.523 182.316C177.227 183.082 178.117 183.465 179.195 183.465C179.961 183.465 180.609 183.309 181.141 182.996C181.672 182.684 182.137 182.27 182.535 181.754L183.859 182.785C182.797 184.418 181.203 185.234 179.078 185.234ZM178.809 173.867C177.934 173.867 177.199 174.188 176.605 174.828C176.012 175.461 175.645 176.352 175.504 177.5H181.855V177.336C181.793 176.234 181.496 175.383 180.965 174.781C180.434 174.172 179.715 173.867 178.809 173.867ZM194.746 172.32H196.914V185H194.746V175.754L188.898 185H186.73V172.32H188.898V181.578L194.746 172.32ZM195.332 167.703C195.332 168.648 195.008 169.41 194.359 169.988C193.719 170.559 192.875 170.844 191.828 170.844C190.781 170.844 189.934 170.555 189.285 169.977C188.637 169.398 188.312 168.641 188.312 167.703H190.082C190.082 168.25 190.23 168.68 190.527 168.992C190.824 169.297 191.258 169.449 191.828 169.449C192.375 169.449 192.801 169.297 193.105 168.992C193.418 168.688 193.574 168.258 193.574 167.703H195.332Z" fill="black"/>
</svg>
