<svg width="192" height="206" viewBox="0 0 192 206" fill="none" xmlns="http://www.w3.org/2000/svg">
<path d="M18.7266 160H16.4648V152.113H7.86328V160H5.61328V142.938H7.86328V150.273H16.4648V142.938H18.7266V160ZM27.6445 160.234C25.9258 160.234 24.5273 159.672 23.4492 158.547C22.3711 157.414 21.832 155.902 21.832 154.012V153.613C21.832 152.355 22.0703 151.234 22.5469 150.25C23.0312 149.258 23.7031 148.484 24.5625 147.93C25.4297 147.367 26.3672 147.086 27.375 147.086C29.0234 147.086 30.3047 147.629 31.2188 148.715C32.1328 149.801 32.5898 151.355 32.5898 153.379V154.281H24C24.0312 155.531 24.3945 156.543 25.0898 157.316C25.793 158.082 26.6836 158.465 27.7617 158.465C28.5273 158.465 29.1758 158.309 29.707 157.996C30.2383 157.684 30.7031 157.27 31.1016 156.754L32.4258 157.785C31.3633 159.418 29.7695 160.234 27.6445 160.234ZM27.375 148.867C26.5 148.867 25.7656 149.188 25.1719 149.828C24.5781 150.461 24.2109 151.352 24.0703 152.5H30.4219V152.336C30.3594 151.234 30.0625 150.383 29.5312 149.781C29 149.172 28.2812 148.867 27.375 148.867ZM51.4336 160H49.2656V149.113H43.4297V160H41.25V147.32H51.4336V160ZM60.1758 160.234C58.457 160.234 57.0586 159.672 55.9805 158.547C54.9023 157.414 54.3633 155.902 54.3633 154.012V153.613C54.3633 152.355 54.6016 151.234 55.0781 150.25C55.5625 149.258 56.2344 148.484 57.0938 147.93C57.9609 147.367 58.8984 147.086 59.9062 147.086C61.5547 147.086 62.8359 147.629 63.75 148.715C64.6641 149.801 65.1211 151.355 65.1211 153.379V154.281H56.5312C56.5625 155.531 56.9258 156.543 57.6211 157.316C58.3242 158.082 59.2148 158.465 60.293 158.465C61.0586 158.465 61.707 158.309 62.2383 157.996C62.7695 157.684 63.2344 157.27 63.6328 156.754L64.957 157.785C63.8945 159.418 62.3008 160.234 60.1758 160.234ZM59.9062 148.867C59.0312 148.867 58.2969 149.188 57.7031 149.828C57.1094 150.461 56.7422 151.352 56.6016 152.5H62.9531V152.336C62.8906 151.234 62.5938 150.383 62.0625 149.781C61.5312 149.172 60.8125 148.867 59.9062 148.867ZM78.3516 153.801C78.3516 155.73 77.9102 157.285 77.0273 158.465C76.1445 159.645 74.9492 160.234 73.4414 160.234C71.9023 160.234 70.6914 159.746 69.8086 158.77V164.875H67.6406V147.32H69.6211L69.7266 148.727C70.6094 147.633 71.8359 147.086 73.4062 147.086C74.9297 147.086 76.1328 147.66 77.0156 148.809C77.9062 149.957 78.3516 151.555 78.3516 153.602V153.801ZM76.1836 153.555C76.1836 152.125 75.8789 150.996 75.2695 150.168C74.6602 149.34 73.8242 148.926 72.7617 148.926C71.4492 148.926 70.4648 149.508 69.8086 150.672V156.73C70.457 157.887 71.4492 158.465 72.7852 158.465C73.8242 158.465 74.6484 158.055 75.2578 157.234C75.875 156.406 76.1836 155.18 76.1836 153.555ZM86.3789 160.234C84.6602 160.234 83.2617 159.672 82.1836 158.547C81.1055 157.414 80.5664 155.902 80.5664 154.012V153.613C80.5664 152.355 80.8047 151.234 81.2812 150.25C81.7656 149.258 82.4375 148.484 83.2969 147.93C84.1641 147.367 85.1016 147.086 86.1094 147.086C87.7578 147.086 89.0391 147.629 89.9531 148.715C90.8672 149.801 91.3242 151.355 91.3242 153.379V154.281H82.7344C82.7656 155.531 83.1289 156.543 83.8242 157.316C84.5273 158.082 85.418 158.465 86.4961 158.465C87.2617 158.465 87.9102 158.309 88.4414 157.996C88.9727 157.684 89.4375 157.27 89.8359 156.754L91.1602 157.785C90.0977 159.418 88.5039 160.234 86.3789 160.234ZM86.1094 148.867C85.2344 148.867 84.5 149.188 83.9062 149.828C83.3125 150.461 82.9453 151.352 82.8047 152.5H89.1562V152.336C89.0938 151.234 88.7969 150.383 88.2656 149.781C87.7344 149.172 87.0156 148.867 86.1094 148.867ZM103.957 154.492H102.434V160H100.266V154.492H98.7422L95.1914 160H92.4492L96.9844 153.438L92.8828 147.32H95.5078L98.7773 152.57H100.266V147.32H102.434V152.57H103.91L107.203 147.32H109.828L105.715 153.449L110.25 160H107.508L103.957 154.492ZM120.422 147.32H122.59V160H120.422V150.754L114.574 160H112.406V147.32H114.574V156.578L120.422 147.32ZM126.27 160V147.32H131.215C132.902 147.32 134.195 147.617 135.094 148.211C136 148.797 136.453 149.66 136.453 150.801C136.453 151.387 136.277 151.918 135.926 152.395C135.574 152.863 135.055 153.223 134.367 153.473C135.133 153.652 135.746 154.004 136.207 154.527C136.676 155.051 136.91 155.676 136.91 156.402C136.91 157.566 136.48 158.457 135.621 159.074C134.77 159.691 133.562 160 132 160H126.27ZM128.438 154.434V158.254H132.023C132.93 158.254 133.605 158.086 134.051 157.75C134.504 157.414 134.73 156.941 134.73 156.332C134.73 155.066 133.801 154.434 131.941 154.434H128.438ZM128.438 152.699H131.238C133.27 152.699 134.285 152.105 134.285 150.918C134.285 149.73 133.324 149.117 131.402 149.078H128.438V152.699ZM147.609 160C147.484 159.75 147.383 159.305 147.305 158.664C146.297 159.711 145.094 160.234 143.695 160.234C142.445 160.234 141.418 159.883 140.613 159.18C139.816 158.469 139.418 157.57 139.418 156.484C139.418 155.164 139.918 154.141 140.918 153.414C141.926 152.68 143.34 152.312 145.16 152.312H147.27V151.316C147.27 150.559 147.043 149.957 146.59 149.512C146.137 149.059 145.469 148.832 144.586 148.832C143.812 148.832 143.164 149.027 142.641 149.418C142.117 149.809 141.855 150.281 141.855 150.836H139.676C139.676 150.203 139.898 149.594 140.344 149.008C140.797 148.414 141.406 147.945 142.172 147.602C142.945 147.258 143.793 147.086 144.715 147.086C146.176 147.086 147.32 147.453 148.148 148.188C148.977 148.914 149.406 149.918 149.438 151.199V157.035C149.438 158.199 149.586 159.125 149.883 159.812V160H147.609ZM144.012 158.348C144.691 158.348 145.336 158.172 145.945 157.82C146.555 157.469 146.996 157.012 147.27 156.449V153.848H145.57C142.914 153.848 141.586 154.625 141.586 156.18C141.586 156.859 141.812 157.391 142.266 157.773C142.719 158.156 143.301 158.348 144.012 158.348ZM161.039 147.32H163.207V160H161.039V150.754L155.191 160H153.023V147.32H155.191V156.578L161.039 147.32ZM161.625 142.703C161.625 143.648 161.301 144.41 160.652 144.988C160.012 145.559 159.168 145.844 158.121 145.844C157.074 145.844 156.227 145.555 155.578 144.977C154.93 144.398 154.605 143.641 154.605 142.703H156.375C156.375 143.25 156.523 143.68 156.82 143.992C157.117 144.297 157.551 144.449 158.121 144.449C158.668 144.449 159.094 144.297 159.398 143.992C159.711 143.688 159.867 143.258 159.867 142.703H161.625ZM176.109 149.078H171.855V160H169.688V149.078H165.516V147.32H176.109V149.078ZM182.543 160.234C180.824 160.234 179.426 159.672 178.348 158.547C177.27 157.414 176.73 155.902 176.73 154.012V153.613C176.73 152.355 176.969 151.234 177.445 150.25C177.93 149.258 178.602 148.484 179.461 147.93C180.328 147.367 181.266 147.086 182.273 147.086C183.922 147.086 185.203 147.629 186.117 148.715C187.031 149.801 187.488 151.355 187.488 153.379V154.281H178.898C178.93 155.531 179.293 156.543 179.988 157.316C180.691 158.082 181.582 158.465 182.66 158.465C183.426 158.465 184.074 158.309 184.605 157.996C185.137 157.684 185.602 157.27 186 156.754L187.324 157.785C186.262 159.418 184.668 160.234 182.543 160.234ZM182.273 148.867C181.398 148.867 180.664 149.188 180.07 149.828C179.477 150.461 179.109 151.352 178.969 152.5H185.32V152.336C185.258 151.234 184.961 150.383 184.43 149.781C183.898 149.172 183.18 148.867 182.273 148.867ZM40.6406 181.543C40.6406 180.301 40.8828 179.184 41.3672 178.191C41.8594 177.199 42.5391 176.434 43.4062 175.895C44.2812 175.355 45.2773 175.086 46.3945 175.086C48.1211 175.086 49.5156 175.684 50.5781 176.879C51.6484 178.074 52.1836 179.664 52.1836 181.648V181.801C52.1836 183.035 51.9453 184.145 51.4688 185.129C51 186.105 50.3242 186.867 49.4414 187.414C48.5664 187.961 47.5586 188.234 46.418 188.234C44.6992 188.234 43.3047 187.637 42.2344 186.441C41.1719 185.246 40.6406 183.664 40.6406 181.695V181.543ZM42.8203 181.801C42.8203 183.207 43.1445 184.336 43.793 185.188C44.4492 186.039 45.3242 186.465 46.418 186.465C47.5195 186.465 48.3945 186.035 49.043 185.176C49.6914 184.309 50.0156 183.098 50.0156 181.543C50.0156 180.152 49.6836 179.027 49.0195 178.168C48.3633 177.301 47.4883 176.867 46.3945 176.867C45.3242 176.867 44.4609 177.293 43.8047 178.145C43.1484 178.996 42.8203 180.215 42.8203 181.801ZM71.2266 188H69.0586V177.113H63.2227V188H61.043V175.32H71.2266V188ZM74.1328 181.543C74.1328 180.301 74.375 179.184 74.8594 178.191C75.3516 177.199 76.0312 176.434 76.8984 175.895C77.7734 175.355 78.7695 175.086 79.8867 175.086C81.6133 175.086 83.0078 175.684 84.0703 176.879C85.1406 178.074 85.6758 179.664 85.6758 181.648V181.801C85.6758 183.035 85.4375 184.145 84.9609 185.129C84.4922 186.105 83.8164 186.867 82.9336 187.414C82.0586 187.961 81.0508 188.234 79.9102 188.234C78.1914 188.234 76.7969 187.637 75.7266 186.441C74.6641 185.246 74.1328 183.664 74.1328 181.695V181.543ZM76.3125 181.801C76.3125 183.207 76.6367 184.336 77.2852 185.188C77.9414 186.039 78.8164 186.465 79.9102 186.465C81.0117 186.465 81.8867 186.035 82.5352 185.176C83.1836 184.309 83.5078 183.098 83.5078 181.543C83.5078 180.152 83.1758 179.027 82.5117 178.168C81.8555 177.301 80.9805 176.867 79.8867 176.867C78.8164 176.867 77.9531 177.293 77.2969 178.145C76.6406 178.996 76.3125 180.215 76.3125 181.801ZM87.4453 186.23L88.1953 185.305C89.0391 184.211 89.5195 182.57 89.6367 180.383L89.8359 175.32H98.0039V186.23H99.6328V191.727H97.4648V188H88.6172V191.727H86.4492L86.4609 186.23H87.4453ZM90.0117 186.23H95.8359V177.324H91.9336L91.8047 180.348C91.6719 182.871 91.0742 184.832 90.0117 186.23ZM109.863 188C109.738 187.75 109.637 187.305 109.559 186.664C108.551 187.711 107.348 188.234 105.949 188.234C104.699 188.234 103.672 187.883 102.867 187.18C102.07 186.469 101.672 185.57 101.672 184.484C101.672 183.164 102.172 182.141 103.172 181.414C104.18 180.68 105.594 180.312 107.414 180.312H109.523V179.316C109.523 178.559 109.297 177.957 108.844 177.512C108.391 177.059 107.723 176.832 106.84 176.832C106.066 176.832 105.418 177.027 104.895 177.418C104.371 177.809 104.109 178.281 104.109 178.836H101.93C101.93 178.203 102.152 177.594 102.598 177.008C103.051 176.414 103.66 175.945 104.426 175.602C105.199 175.258 106.047 175.086 106.969 175.086C108.43 175.086 109.574 175.453 110.402 176.188C111.23 176.914 111.66 177.918 111.691 179.199V185.035C111.691 186.199 111.84 187.125 112.137 187.812V188H109.863ZM106.266 186.348C106.945 186.348 107.59 186.172 108.199 185.82C108.809 185.469 109.25 185.012 109.523 184.449V181.848H107.824C105.168 181.848 103.84 182.625 103.84 184.18C103.84 184.859 104.066 185.391 104.52 185.773C104.973 186.156 105.555 186.348 106.266 186.348ZM125.801 181.801C125.801 183.73 125.359 185.285 124.477 186.465C123.594 187.645 122.398 188.234 120.891 188.234C119.352 188.234 118.141 187.746 117.258 186.77V192.875H115.09V175.32H117.07L117.176 176.727C118.059 175.633 119.285 175.086 120.855 175.086C122.379 175.086 123.582 175.66 124.465 176.809C125.355 177.957 125.801 179.555 125.801 181.602V181.801ZM123.633 181.555C123.633 180.125 123.328 178.996 122.719 178.168C122.109 177.34 121.273 176.926 120.211 176.926C118.898 176.926 117.914 177.508 117.258 178.672V184.73C117.906 185.887 118.898 186.465 120.234 186.465C121.273 186.465 122.098 186.055 122.707 185.234C123.324 184.406 123.633 183.18 123.633 181.555ZM132.516 182.598H130.934V188H128.754V175.32H130.934V180.688H132.352L136.617 175.32H139.242L134.227 181.414L139.664 188H136.91L132.516 182.598ZM146.602 188.234C144.883 188.234 143.484 187.672 142.406 186.547C141.328 185.414 140.789 183.902 140.789 182.012V181.613C140.789 180.355 141.027 179.234 141.504 178.25C141.988 177.258 142.66 176.484 143.52 175.93C144.387 175.367 145.324 175.086 146.332 175.086C147.98 175.086 149.262 175.629 150.176 176.715C151.09 177.801 151.547 179.355 151.547 181.379V182.281H142.957C142.988 183.531 143.352 184.543 144.047 185.316C144.75 186.082 145.641 186.465 146.719 186.465C147.484 186.465 148.133 186.309 148.664 185.996C149.195 185.684 149.66 185.27 150.059 184.754L151.383 185.785C150.32 187.418 148.727 188.234 146.602 188.234ZM146.332 176.867C145.457 176.867 144.723 177.188 144.129 177.828C143.535 178.461 143.168 179.352 143.027 180.5H149.379V180.336C149.316 179.234 149.02 178.383 148.488 177.781C147.957 177.172 147.238 176.867 146.332 176.867Z" fill="black"/>
<path d="M87.5508 81.5898H98.1562V93.0156H87.5508V112H73.3125V93.0156H36.457L36.0469 84.3438L72.8438 26.6875H87.5508V81.5898ZM50.9883 81.5898H73.3125V45.9648L72.2578 47.8398L50.9883 81.5898Z" fill="#ADADAD" fill-opacity="0.39"/>
<mask id="path-3-outside-1" maskUnits="userSpaceOnUse" x="82.0001" y="31" width="79" height="79" fill="black">
<rect fill="white" x="82.0001" y="31" width="79" height="79"/>
<path d="M158.717 52.5333H150.56C155.526 48.538 156.313 41.2732 152.318 36.3069C150.125 33.5812 146.815 31.9973 143.317 32H132.065C127.489 32.0016 123.346 34.7038 121.5 38.8902C119.654 34.7038 115.511 32.0016 110.936 32H99.6835C93.3095 31.995 88.1384 37.1582 88.1335 43.532C88.1307 47.0301 89.7147 50.3406 92.4403 52.5333H84.2835C83.5747 52.5333 83.0001 53.1079 83.0001 53.8167V66.65C83.0001 67.3587 83.5747 67.9333 84.2835 67.9333H86.8501V107.717C86.8501 108.425 87.4247 109 88.1335 109H154.867C155.576 109 156.15 108.425 156.15 107.717V67.9333H158.717C159.426 67.9333 160 67.3587 160 66.65V53.8167C160 53.1079 159.426 52.5333 158.717 52.5333ZM141.041 34.6732C141.145 34.6578 141.248 34.6373 141.352 34.6244C141.677 34.5872 142.004 34.568 142.331 34.5667H143.317C148.276 34.5723 152.295 38.591 152.3 43.55C152.295 48.509 148.276 52.5277 143.317 52.5333H140.302C145.264 48.5353 146.045 41.2722 142.046 36.3109C141.594 35.7494 141.09 35.2318 140.541 34.7643C140.706 34.7297 140.873 34.6989 141.041 34.6732ZM137.711 35.9052C141.945 38.4678 143.3 43.9778 140.738 48.212C139.11 50.9009 136.193 52.5407 133.05 52.5333H128.596L134.101 39.949C134.858 38.2606 136.119 36.848 137.711 35.9052ZM128.626 55.1H137.39L143.452 67.2236L147.657 75.6333H143.317C142.913 75.6333 142.533 75.8236 142.29 76.1467L139.739 79.5475L133.637 66.1238L128.626 55.1ZM130.474 65.3667H127.917V59.7405L130.474 65.3667ZM105.289 35.9052C106.881 36.848 108.142 38.2606 108.899 39.949L114.405 52.5333H109.95C105.001 52.5449 100.979 48.542 100.968 43.5927C100.96 40.4498 102.6 37.5326 105.289 35.9052ZM114.374 55.1L109.369 66.1187L103.261 79.5475L100.71 76.1467C100.468 75.8236 100.087 75.6333 99.6835 75.6333H95.3432L99.5551 67.2236L105.61 55.1H114.374ZM90.7001 43.55C90.7057 38.591 94.7245 34.5723 99.6835 34.5667H100.669C100.996 34.568 101.323 34.5872 101.648 34.6244C101.752 34.6373 101.855 34.6578 101.959 34.6732C102.127 34.6989 102.294 34.7297 102.459 34.7643C97.6072 38.8942 97.0217 46.1757 101.151 51.0278C101.619 51.5769 102.137 52.0809 102.698 52.5333H99.6835C94.7245 52.5277 90.7057 48.509 90.7001 43.55ZM85.5668 65.3667V55.1H102.74L97.607 65.3667H85.5668ZM115.083 106.433H89.4168V67.9333H96.3237L92.1182 76.343C91.8014 76.977 92.0585 77.7478 92.6925 78.0646C92.8709 78.1536 93.0674 78.2 93.2668 78.2H99.0418L102.507 82.82C102.749 83.1431 103.13 83.3333 103.533 83.3333C103.58 83.3333 103.626 83.3307 103.672 83.3256C104.122 83.2757 104.512 82.9929 104.699 82.5813L111.362 67.9333H115.083V106.433ZM115.083 65.3667H112.526L115.083 59.7405V65.3667ZM111.25 38.921C110.503 37.2204 109.354 35.7263 107.903 34.5667H110.936C114.505 34.5667 117.735 36.6794 119.166 39.949L120.099 42.0831L116.367 50.6147L111.25 38.921ZM125.35 106.433H117.65V55.1H125.35V106.433ZM118.329 52.5333L123.835 39.949C125.265 36.6794 128.496 34.5667 132.065 34.5667H135.103C133.652 35.7263 132.504 37.2204 131.757 38.921L125.794 52.5333H118.329ZM153.583 106.433H127.917V67.9333H131.638L138.299 82.5813C138.486 82.9929 138.876 83.2757 139.326 83.3256C139.372 83.3309 139.42 83.3335 139.467 83.3333C139.871 83.3333 140.251 83.1431 140.493 82.82L143.958 78.2H149.733C150.442 78.2038 151.02 77.6324 151.024 76.9237C151.025 76.7222 150.979 76.5233 150.888 76.343L146.677 67.9333H153.583V106.433ZM157.433 65.3667H145.393L140.26 55.1H157.433V65.3667Z"/>
</mask>
<path d="M158.717 52.5333H150.56C155.526 48.538 156.313 41.2732 152.318 36.3069C150.125 33.5812 146.815 31.9973 143.317 32H132.065C127.489 32.0016 123.346 34.7038 121.5 38.8902C119.654 34.7038 115.511 32.0016 110.936 32H99.6835C93.3095 31.995 88.1384 37.1582 88.1335 43.532C88.1307 47.0301 89.7147 50.3406 92.4403 52.5333H84.2835C83.5747 52.5333 83.0001 53.1079 83.0001 53.8167V66.65C83.0001 67.3587 83.5747 67.9333 84.2835 67.9333H86.8501V107.717C86.8501 108.425 87.4247 109 88.1335 109H154.867C155.576 109 156.15 108.425 156.15 107.717V67.9333H158.717C159.426 67.9333 160 67.3587 160 66.65V53.8167C160 53.1079 159.426 52.5333 158.717 52.5333ZM141.041 34.6732C141.145 34.6578 141.248 34.6373 141.352 34.6244C141.677 34.5872 142.004 34.568 142.331 34.5667H143.317C148.276 34.5723 152.295 38.591 152.3 43.55C152.295 48.509 148.276 52.5277 143.317 52.5333H140.302C145.264 48.5353 146.045 41.2722 142.046 36.3109C141.594 35.7494 141.09 35.2318 140.541 34.7643C140.706 34.7297 140.873 34.6989 141.041 34.6732ZM137.711 35.9052C141.945 38.4678 143.3 43.9778 140.738 48.212C139.11 50.9009 136.193 52.5407 133.05 52.5333H128.596L134.101 39.949C134.858 38.2606 136.119 36.848 137.711 35.9052ZM128.626 55.1H137.39L143.452 67.2236L147.657 75.6333H143.317C142.913 75.6333 142.533 75.8236 142.29 76.1467L139.739 79.5475L133.637 66.1238L128.626 55.1ZM130.474 65.3667H127.917V59.7405L130.474 65.3667ZM105.289 35.9052C106.881 36.848 108.142 38.2606 108.899 39.949L114.405 52.5333H109.95C105.001 52.5449 100.979 48.542 100.968 43.5927C100.96 40.4498 102.6 37.5326 105.289 35.9052ZM114.374 55.1L109.369 66.1187L103.261 79.5475L100.71 76.1467C100.468 75.8236 100.087 75.6333 99.6835 75.6333H95.3432L99.5551 67.2236L105.61 55.1H114.374ZM90.7001 43.55C90.7057 38.591 94.7245 34.5723 99.6835 34.5667H100.669C100.996 34.568 101.323 34.5872 101.648 34.6244C101.752 34.6373 101.855 34.6578 101.959 34.6732C102.127 34.6989 102.294 34.7297 102.459 34.7643C97.6072 38.8942 97.0217 46.1757 101.151 51.0278C101.619 51.5769 102.137 52.0809 102.698 52.5333H99.6835C94.7245 52.5277 90.7057 48.509 90.7001 43.55ZM85.5668 65.3667V55.1H102.74L97.607 65.3667H85.5668ZM115.083 106.433H89.4168V67.9333H96.3237L92.1182 76.343C91.8014 76.977 92.0585 77.7478 92.6925 78.0646C92.8709 78.1536 93.0674 78.2 93.2668 78.2H99.0418L102.507 82.82C102.749 83.1431 103.13 83.3333 103.533 83.3333C103.58 83.3333 103.626 83.3307 103.672 83.3256C104.122 83.2757 104.512 82.9929 104.699 82.5813L111.362 67.9333H115.083V106.433ZM115.083 65.3667H112.526L115.083 59.7405V65.3667ZM111.25 38.921C110.503 37.2204 109.354 35.7263 107.903 34.5667H110.936C114.505 34.5667 117.735 36.6794 119.166 39.949L120.099 42.0831L116.367 50.6147L111.25 38.921ZM125.35 106.433H117.65V55.1H125.35V106.433ZM118.329 52.5333L123.835 39.949C125.265 36.6794 128.496 34.5667 132.065 34.5667H135.103C133.652 35.7263 132.504 37.2204 131.757 38.921L125.794 52.5333H118.329ZM153.583 106.433H127.917V67.9333H131.638L138.299 82.5813C138.486 82.9929 138.876 83.2757 139.326 83.3256C139.372 83.3309 139.42 83.3335 139.467 83.3333C139.871 83.3333 140.251 83.1431 140.493 82.82L143.958 78.2H149.733C150.442 78.2038 151.02 77.6324 151.024 76.9237C151.025 76.7222 150.979 76.5233 150.888 76.343L146.677 67.9333H153.583V106.433ZM157.433 65.3667H145.393L140.26 55.1H157.433V65.3667Z" fill="#77675A"/>
<path d="M158.717 52.5333H150.56C155.526 48.538 156.313 41.2732 152.318 36.3069C150.125 33.5812 146.815 31.9973 143.317 32H132.065C127.489 32.0016 123.346 34.7038 121.5 38.8902C119.654 34.7038 115.511 32.0016 110.936 32H99.6835C93.3095 31.995 88.1384 37.1582 88.1335 43.532C88.1307 47.0301 89.7147 50.3406 92.4403 52.5333H84.2835C83.5747 52.5333 83.0001 53.1079 83.0001 53.8167V66.65C83.0001 67.3587 83.5747 67.9333 84.2835 67.9333H86.8501V107.717C86.8501 108.425 87.4247 109 88.1335 109H154.867C155.576 109 156.15 108.425 156.15 107.717V67.9333H158.717C159.426 67.9333 160 67.3587 160 66.65V53.8167C160 53.1079 159.426 52.5333 158.717 52.5333ZM141.041 34.6732C141.145 34.6578 141.248 34.6373 141.352 34.6244C141.677 34.5872 142.004 34.568 142.331 34.5667H143.317C148.276 34.5723 152.295 38.591 152.3 43.55C152.295 48.509 148.276 52.5277 143.317 52.5333H140.302C145.264 48.5353 146.045 41.2722 142.046 36.3109C141.594 35.7494 141.09 35.2318 140.541 34.7643C140.706 34.7297 140.873 34.6989 141.041 34.6732ZM137.711 35.9052C141.945 38.4678 143.3 43.9778 140.738 48.212C139.11 50.9009 136.193 52.5407 133.05 52.5333H128.596L134.101 39.949C134.858 38.2606 136.119 36.848 137.711 35.9052ZM128.626 55.1H137.39L143.452 67.2236L147.657 75.6333H143.317C142.913 75.6333 142.533 75.8236 142.29 76.1467L139.739 79.5475L133.637 66.1238L128.626 55.1ZM130.474 65.3667H127.917V59.7405L130.474 65.3667ZM105.289 35.9052C106.881 36.848 108.142 38.2606 108.899 39.949L114.405 52.5333H109.95C105.001 52.5449 100.979 48.542 100.968 43.5927C100.96 40.4498 102.6 37.5326 105.289 35.9052ZM114.374 55.1L109.369 66.1187L103.261 79.5475L100.71 76.1467C100.468 75.8236 100.087 75.6333 99.6835 75.6333H95.3432L99.5551 67.2236L105.61 55.1H114.374ZM90.7001 43.55C90.7057 38.591 94.7245 34.5723 99.6835 34.5667H100.669C100.996 34.568 101.323 34.5872 101.648 34.6244C101.752 34.6373 101.855 34.6578 101.959 34.6732C102.127 34.6989 102.294 34.7297 102.459 34.7643C97.6072 38.8942 97.0217 46.1757 101.151 51.0278C101.619 51.5769 102.137 52.0809 102.698 52.5333H99.6835C94.7245 52.5277 90.7057 48.509 90.7001 43.55ZM85.5668 65.3667V55.1H102.74L97.607 65.3667H85.5668ZM115.083 106.433H89.4168V67.9333H96.3237L92.1182 76.343C91.8014 76.977 92.0585 77.7478 92.6925 78.0646C92.8709 78.1536 93.0674 78.2 93.2668 78.2H99.0418L102.507 82.82C102.749 83.1431 103.13 83.3333 103.533 83.3333C103.58 83.3333 103.626 83.3307 103.672 83.3256C104.122 83.2757 104.512 82.9929 104.699 82.5813L111.362 67.9333H115.083V106.433ZM115.083 65.3667H112.526L115.083 59.7405V65.3667ZM111.25 38.921C110.503 37.2204 109.354 35.7263 107.903 34.5667H110.936C114.505 34.5667 117.735 36.6794 119.166 39.949L120.099 42.0831L116.367 50.6147L111.25 38.921ZM125.35 106.433H117.65V55.1H125.35V106.433ZM118.329 52.5333L123.835 39.949C125.265 36.6794 128.496 34.5667 132.065 34.5667H135.103C133.652 35.7263 132.504 37.2204 131.757 38.921L125.794 52.5333H118.329ZM153.583 106.433H127.917V67.9333H131.638L138.299 82.5813C138.486 82.9929 138.876 83.2757 139.326 83.3256C139.372 83.3309 139.42 83.3335 139.467 83.3333C139.871 83.3333 140.251 83.1431 140.493 82.82L143.958 78.2H149.733C150.442 78.2038 151.02 77.6324 151.024 76.9237C151.025 76.7222 150.979 76.5233 150.888 76.343L146.677 67.9333H153.583V106.433ZM157.433 65.3667H145.393L140.26 55.1H157.433V65.3667Z" stroke="#77675A" mask="url(#path-3-outside-1)"/>
</svg>
