<svg width="204" height="204" viewBox="0 0 204 204" fill="none" xmlns="http://www.w3.org/2000/svg">
<path d="M11.3203 158V140.938H16.8984C18.75 140.938 20.1406 141.32 21.0703 142.086C22.0078 142.852 22.4766 143.984 22.4766 145.484C22.4766 146.281 22.25 146.988 21.7969 147.605C21.3438 148.215 20.7266 148.688 19.9453 149.023C20.8672 149.281 21.5938 149.773 22.125 150.5C22.6641 151.219 22.9336 152.078 22.9336 153.078C22.9336 154.609 22.4375 155.812 21.4453 156.688C20.4531 157.562 19.0508 158 17.2383 158H11.3203ZM13.5703 150.02V156.16H17.2852C18.332 156.16 19.1562 155.891 19.7578 155.352C20.3672 154.805 20.6719 154.055 20.6719 153.102C20.6719 151.047 19.5547 150.02 17.3203 150.02H13.5703ZM13.5703 148.215H16.9688C17.9531 148.215 18.7383 147.969 19.3242 147.477C19.918 146.984 20.2148 146.316 20.2148 145.473C20.2148 144.535 19.9414 143.855 19.3945 143.434C18.8477 143.004 18.0156 142.789 16.8984 142.789H13.5703V148.215ZM28.3008 149.691H31.5938C33.0312 149.707 34.168 150.082 35.0039 150.816C35.8398 151.551 36.2578 152.547 36.2578 153.805C36.2578 155.07 35.8281 156.086 34.9688 156.852C34.1094 157.617 32.9531 158 31.5 158H26.1328V145.32H28.3008V149.691ZM40.7812 158H38.6016V145.32H40.7812V158ZM28.3008 151.461V156.23H31.5234C32.3359 156.23 32.9648 156.023 33.4102 155.609C33.8555 155.188 34.0781 154.613 34.0781 153.887C34.0781 153.184 33.8594 152.609 33.4219 152.164C32.9922 151.711 32.3867 151.477 31.6055 151.461H28.3008ZM50.1328 146.047C51.7266 146.047 53 146.582 53.9531 147.652C54.9141 148.715 55.3945 150.117 55.3945 151.859V152.059C55.3945 153.254 55.1641 154.324 54.7031 155.27C54.2422 156.207 53.5781 156.938 52.7109 157.461C51.8516 157.977 50.8594 158.234 49.7344 158.234C48.0312 158.234 46.6602 157.668 45.6211 156.535C44.582 155.395 44.0625 153.867 44.0625 151.953V150.898C44.0625 148.234 44.5547 146.117 45.5391 144.547C46.5312 142.977 47.9922 142.02 49.9219 141.676C51.0156 141.48 51.7539 141.242 52.1367 140.961C52.5195 140.68 52.7109 140.293 52.7109 139.801H54.4922C54.4922 140.777 54.2695 141.539 53.8242 142.086C53.3867 142.633 52.6836 143.02 51.7148 143.246L50.0977 143.609C48.8086 143.914 47.8398 144.43 47.1914 145.156C46.5508 145.875 46.1328 146.836 45.9375 148.039C47.0859 146.711 48.4844 146.047 50.1328 146.047ZM49.7109 147.828C48.6484 147.828 47.8047 148.188 47.1797 148.906C46.5547 149.617 46.2422 150.605 46.2422 151.871V152.059C46.2422 153.418 46.5547 154.496 47.1797 155.293C47.8125 156.082 48.6641 156.477 49.7344 156.477C50.8125 156.477 51.6641 156.078 52.2891 155.281C52.9141 154.484 53.2266 153.32 53.2266 151.789C53.2266 150.594 52.9102 149.637 52.2773 148.918C51.6523 148.191 50.7969 147.828 49.7109 147.828ZM63.0938 158.234C61.375 158.234 59.9766 157.672 58.8984 156.547C57.8203 155.414 57.2812 153.902 57.2812 152.012V151.613C57.2812 150.355 57.5195 149.234 57.9961 148.25C58.4805 147.258 59.1523 146.484 60.0117 145.93C60.8789 145.367 61.8164 145.086 62.8242 145.086C64.4727 145.086 65.7539 145.629 66.668 146.715C67.582 147.801 68.0391 149.355 68.0391 151.379V152.281H59.4492C59.4805 153.531 59.8438 154.543 60.5391 155.316C61.2422 156.082 62.1328 156.465 63.2109 156.465C63.9766 156.465 64.625 156.309 65.1562 155.996C65.6875 155.684 66.1523 155.27 66.5508 154.754L67.875 155.785C66.8125 157.418 65.2188 158.234 63.0938 158.234ZM62.8242 146.867C61.9492 146.867 61.2148 147.188 60.6211 147.828C60.0273 148.461 59.6602 149.352 59.5195 150.5H65.8711V150.336C65.8086 149.234 65.5117 148.383 64.9805 147.781C64.4492 147.172 63.7305 146.867 62.8242 146.867ZM81.2695 151.801C81.2695 153.73 80.8281 155.285 79.9453 156.465C79.0625 157.645 77.8672 158.234 76.3594 158.234C74.8203 158.234 73.6094 157.746 72.7266 156.77V162.875H70.5586V145.32H72.5391L72.6445 146.727C73.5273 145.633 74.7539 145.086 76.3242 145.086C77.8477 145.086 79.0508 145.66 79.9336 146.809C80.8242 147.957 81.2695 149.555 81.2695 151.602V151.801ZM79.1016 151.555C79.1016 150.125 78.7969 148.996 78.1875 148.168C77.5781 147.34 76.7422 146.926 75.6797 146.926C74.3672 146.926 73.3828 147.508 72.7266 148.672V154.73C73.375 155.887 74.3672 156.465 75.7031 156.465C76.7422 156.465 77.5664 156.055 78.1758 155.234C78.793 154.406 79.1016 153.18 79.1016 151.555ZM92.2383 145.32H94.4062V158H92.2383V148.754L86.3906 158H84.2227V145.32H86.3906V154.578L92.2383 145.32ZM107.309 147.078H103.055V158H100.887V147.078H96.7148V145.32H107.309V147.078ZM113.742 158.234C112.023 158.234 110.625 157.672 109.547 156.547C108.469 155.414 107.93 153.902 107.93 152.012V151.613C107.93 150.355 108.168 149.234 108.645 148.25C109.129 147.258 109.801 146.484 110.66 145.93C111.527 145.367 112.465 145.086 113.473 145.086C115.121 145.086 116.402 145.629 117.316 146.715C118.23 147.801 118.688 149.355 118.688 151.379V152.281H110.098C110.129 153.531 110.492 154.543 111.188 155.316C111.891 156.082 112.781 156.465 113.859 156.465C114.625 156.465 115.273 156.309 115.805 155.996C116.336 155.684 116.801 155.27 117.199 154.754L118.523 155.785C117.461 157.418 115.867 158.234 113.742 158.234ZM113.473 146.867C112.598 146.867 111.863 147.188 111.27 147.828C110.676 148.461 110.309 149.352 110.168 150.5H116.52V150.336C116.457 149.234 116.16 148.383 115.629 147.781C115.098 147.172 114.379 146.867 113.473 146.867ZM136.582 147.078H132.328V158H130.16V147.078H125.988V145.32H136.582V147.078ZM146.332 158C146.207 157.75 146.105 157.305 146.027 156.664C145.02 157.711 143.816 158.234 142.418 158.234C141.168 158.234 140.141 157.883 139.336 157.18C138.539 156.469 138.141 155.57 138.141 154.484C138.141 153.164 138.641 152.141 139.641 151.414C140.648 150.68 142.062 150.312 143.883 150.312H145.992V149.316C145.992 148.559 145.766 147.957 145.312 147.512C144.859 147.059 144.191 146.832 143.309 146.832C142.535 146.832 141.887 147.027 141.363 147.418C140.84 147.809 140.578 148.281 140.578 148.836H138.398C138.398 148.203 138.621 147.594 139.066 147.008C139.52 146.414 140.129 145.945 140.895 145.602C141.668 145.258 142.516 145.086 143.438 145.086C144.898 145.086 146.043 145.453 146.871 146.188C147.699 146.914 148.129 147.918 148.16 149.199V155.035C148.16 156.199 148.309 157.125 148.605 157.812V158H146.332ZM142.734 156.348C143.414 156.348 144.059 156.172 144.668 155.82C145.277 155.469 145.719 155.012 145.992 154.449V151.848H144.293C141.637 151.848 140.309 152.625 140.309 154.18C140.309 154.859 140.535 155.391 140.988 155.773C141.441 156.156 142.023 156.348 142.734 156.348ZM162.27 151.801C162.27 153.73 161.828 155.285 160.945 156.465C160.062 157.645 158.867 158.234 157.359 158.234C155.82 158.234 154.609 157.746 153.727 156.77V162.875H151.559V145.32H153.539L153.645 146.727C154.527 145.633 155.754 145.086 157.324 145.086C158.848 145.086 160.051 145.66 160.934 146.809C161.824 147.957 162.27 149.555 162.27 151.602V151.801ZM160.102 151.555C160.102 150.125 159.797 148.996 159.188 148.168C158.578 147.34 157.742 146.926 156.68 146.926C155.367 146.926 154.383 147.508 153.727 148.672V154.73C154.375 155.887 155.367 156.465 156.703 156.465C157.742 156.465 158.566 156.055 159.176 155.234C159.793 154.406 160.102 153.18 160.102 151.555ZM173.238 145.32H175.406V158H173.238V148.754L167.391 158H165.223V145.32H167.391V154.578L173.238 145.32ZM178.418 151.895C178.418 149.777 178.828 148.113 179.648 146.902C180.469 145.691 181.594 145.086 183.023 145.086C183.688 145.086 184.27 145.199 184.77 145.426V140H186.938V145.496C187.484 145.223 188.125 145.086 188.859 145.086C190.297 145.086 191.426 145.691 192.246 146.902C193.066 148.113 193.477 149.859 193.477 152.141C193.477 154.008 193.066 155.492 192.246 156.594C191.434 157.695 190.312 158.246 188.883 158.246C188.125 158.246 187.477 158.121 186.938 157.871V162.875H184.77V157.906C184.254 158.133 183.664 158.246 183 158.246C181.578 158.246 180.457 157.695 179.637 156.594C178.824 155.492 178.418 153.984 178.418 152.07V151.895ZM191.309 151.895C191.309 150.301 191.035 149.066 190.488 148.191C189.941 147.309 189.188 146.867 188.227 146.867C187.734 146.867 187.305 146.945 186.938 147.102V156.277C187.289 156.41 187.727 156.477 188.25 156.477C189.219 156.477 189.969 156.102 190.5 155.352C191.039 154.602 191.309 153.449 191.309 151.895ZM180.586 152.141C180.586 153.562 180.84 154.641 181.348 155.375C181.855 156.109 182.586 156.477 183.539 156.477C183.992 156.477 184.402 156.406 184.77 156.266V147.066C184.441 146.934 184.039 146.867 183.562 146.867C182.609 146.867 181.875 147.293 181.359 148.145C180.844 148.996 180.586 150.328 180.586 152.141ZM25.0312 173.32H27.1992V186H25.0312V176.754L19.1836 186H17.0156V173.32H19.1836V182.578L25.0312 173.32ZM36.832 186V173.32H41.7773C43.4648 173.32 44.7578 173.617 45.6562 174.211C46.5625 174.797 47.0156 175.66 47.0156 176.801C47.0156 177.387 46.8398 177.918 46.4883 178.395C46.1367 178.863 45.6172 179.223 44.9297 179.473C45.6953 179.652 46.3086 180.004 46.7695 180.527C47.2383 181.051 47.4727 181.676 47.4727 182.402C47.4727 183.566 47.043 184.457 46.1836 185.074C45.332 185.691 44.125 186 42.5625 186H36.832ZM39 180.434V184.254H42.5859C43.4922 184.254 44.168 184.086 44.6133 183.75C45.0664 183.414 45.293 182.941 45.293 182.332C45.293 181.066 44.3633 180.434 42.5039 180.434H39ZM39 178.699H41.8008C43.832 178.699 44.8477 178.105 44.8477 176.918C44.8477 175.73 43.8867 175.117 41.9648 175.078H39V178.699ZM58.1719 186C58.0469 185.75 57.9453 185.305 57.8672 184.664C56.8594 185.711 55.6562 186.234 54.2578 186.234C53.0078 186.234 51.9805 185.883 51.1758 185.18C50.3789 184.469 49.9805 183.57 49.9805 182.484C49.9805 181.164 50.4805 180.141 51.4805 179.414C52.4883 178.68 53.9023 178.312 55.7227 178.312H57.832V177.316C57.832 176.559 57.6055 175.957 57.1523 175.512C56.6992 175.059 56.0312 174.832 55.1484 174.832C54.375 174.832 53.7266 175.027 53.2031 175.418C52.6797 175.809 52.418 176.281 52.418 176.836H50.2383C50.2383 176.203 50.4609 175.594 50.9062 175.008C51.3594 174.414 51.9688 173.945 52.7344 173.602C53.5078 173.258 54.3555 173.086 55.2773 173.086C56.7383 173.086 57.8828 173.453 58.7109 174.188C59.5391 174.914 59.9688 175.918 60 177.199V183.035C60 184.199 60.1484 185.125 60.4453 185.812V186H58.1719ZM54.5742 184.348C55.2539 184.348 55.8984 184.172 56.5078 183.82C57.1172 183.469 57.5586 183.012 57.832 182.449V179.848H56.1328C53.4766 179.848 52.1484 180.625 52.1484 182.18C52.1484 182.859 52.375 183.391 52.8281 183.773C53.2812 184.156 53.8633 184.348 54.5742 184.348ZM73.5117 180.492H71.9883V186H69.8203V180.492H68.2969L64.7461 186H62.0039L66.5391 179.438L62.4375 173.32H65.0625L68.332 178.57H69.8203V173.32H71.9883V178.57H73.4648L76.7578 173.32H79.3828L75.2695 179.449L79.8047 186H77.0625L73.5117 180.492ZM92.1328 186H89.9648V180.586H84.1406V186H81.9609V173.32H84.1406V178.816H89.9648V173.32H92.1328V186ZM97.9922 177.691H101.285C102.723 177.707 103.859 178.082 104.695 178.816C105.531 179.551 105.949 180.547 105.949 181.805C105.949 183.07 105.52 184.086 104.66 184.852C103.801 185.617 102.645 186 101.191 186H95.8242V173.32H97.9922V177.691ZM110.473 186H108.293V173.32H110.473V186ZM97.9922 179.461V184.23H101.215C102.027 184.23 102.656 184.023 103.102 183.609C103.547 183.188 103.77 182.613 103.77 181.887C103.77 181.184 103.551 180.609 103.113 180.164C102.684 179.711 102.078 179.477 101.297 179.461H97.9922ZM119.52 186.234C117.801 186.234 116.402 185.672 115.324 184.547C114.246 183.414 113.707 181.902 113.707 180.012V179.613C113.707 178.355 113.945 177.234 114.422 176.25C114.906 175.258 115.578 174.484 116.438 173.93C117.305 173.367 118.242 173.086 119.25 173.086C120.898 173.086 122.18 173.629 123.094 174.715C124.008 175.801 124.465 177.355 124.465 179.379V180.281H115.875C115.906 181.531 116.27 182.543 116.965 183.316C117.668 184.082 118.559 184.465 119.637 184.465C120.402 184.465 121.051 184.309 121.582 183.996C122.113 183.684 122.578 183.27 122.977 182.754L124.301 183.785C123.238 185.418 121.645 186.234 119.52 186.234ZM119.25 174.867C118.375 174.867 117.641 175.188 117.047 175.828C116.453 176.461 116.086 177.352 115.945 178.5H122.297V178.336C122.234 177.234 121.938 176.383 121.406 175.781C120.875 175.172 120.156 174.867 119.25 174.867ZM132.832 184.23L133.582 183.305C134.426 182.211 134.906 180.57 135.023 178.383L135.223 173.32H143.391V184.23H145.02V189.727H142.852V186H134.004V189.727H131.836L131.848 184.23H132.832ZM135.398 184.23H141.223V175.324H137.32L137.191 178.348C137.059 180.871 136.461 182.832 135.398 184.23ZM155.25 186C155.125 185.75 155.023 185.305 154.945 184.664C153.938 185.711 152.734 186.234 151.336 186.234C150.086 186.234 149.059 185.883 148.254 185.18C147.457 184.469 147.059 183.57 147.059 182.484C147.059 181.164 147.559 180.141 148.559 179.414C149.566 178.68 150.98 178.312 152.801 178.312H154.91V177.316C154.91 176.559 154.684 175.957 154.23 175.512C153.777 175.059 153.109 174.832 152.227 174.832C151.453 174.832 150.805 175.027 150.281 175.418C149.758 175.809 149.496 176.281 149.496 176.836H147.316C147.316 176.203 147.539 175.594 147.984 175.008C148.438 174.414 149.047 173.945 149.812 173.602C150.586 173.258 151.434 173.086 152.355 173.086C153.816 173.086 154.961 173.453 155.789 174.188C156.617 174.914 157.047 175.918 157.078 177.199V183.035C157.078 184.199 157.227 185.125 157.523 185.812V186H155.25ZM151.652 184.348C152.332 184.348 152.977 184.172 153.586 183.82C154.195 183.469 154.637 183.012 154.91 182.449V179.848H153.211C150.555 179.848 149.227 180.625 149.227 182.18C149.227 182.859 149.453 183.391 149.906 183.773C150.359 184.156 150.941 184.348 151.652 184.348ZM169.711 175.078H165.457V186H163.289V175.078H159.117V173.32H169.711V175.078ZM174.188 177.691H177.48C178.918 177.707 180.055 178.082 180.891 178.816C181.727 179.551 182.145 180.547 182.145 181.805C182.145 183.07 181.715 184.086 180.855 184.852C179.996 185.617 178.84 186 177.387 186H172.02V173.32H174.188V177.691ZM186.668 186H184.488V173.32H186.668V186ZM174.188 179.461V184.23H177.41C178.223 184.23 178.852 184.023 179.297 183.609C179.742 183.188 179.965 182.613 179.965 181.887C179.965 181.184 179.746 180.609 179.309 180.164C178.879 179.711 178.273 179.477 177.492 179.461H174.188Z" fill="black"/>
<path d="M85.9414 112H71.7617V43.5039L50.8438 50.6523V38.6406L84.125 26.3945H85.9414V112Z" fill="#ADADAD" fill-opacity="0.39"/>
<mask id="path-3-outside-1" maskUnits="userSpaceOnUse" x="78" y="36" width="75" height="77" fill="black">
<rect fill="white" x="78" y="36" width="75" height="77"/>
<path d="M150.973 40.647H135.715V38.0975C135.715 37.4914 135.213 37 134.593 37H95.9681C95.3484 37 94.8463 37.4914 94.8463 38.0975V40.647H80.1222C79.5104 40.647 79 41.1475 79 41.7447L79.0003 70.5441C79.0003 71.1502 79.5024 71.6416 80.1222 71.6416H94.8464V79.6547C94.8464 80.2608 95.3485 80.7522 95.9683 80.7522H99.392C99.1723 81.1668 99.0245 81.6256 98.967 82.1142L97.492 94.6087C97.4506 94.962 97.431 95.3205 97.4338 95.6654C97.4338 98.4825 98.8984 100.803 101.017 102.587C102.262 103.636 103.507 104.684 104.752 105.733V110.827C104.752 111.433 105.254 111.924 105.873 111.924H109.325C109.945 111.924 110.447 111.433 110.447 110.827C110.447 110.221 109.945 109.729 109.325 109.729H106.995V105.229C106.995 104.91 106.853 104.606 106.606 104.398C105.377 103.363 104.149 102.329 102.921 101.295C101.121 99.7786 99.7239 98.1198 99.6775 95.6481C99.6756 95.3865 99.6904 95.1213 99.7211 94.8602L101.196 82.3656C101.299 81.4857 102.062 80.822 102.969 80.822C103.563 80.822 104.061 81.1415 104.306 81.415C104.708 81.8648 104.752 82.3698 104.752 82.5661V91.8186C104.752 92.4248 105.254 92.9162 105.874 92.9162C106.493 92.9162 106.995 92.4248 106.995 91.8186V62.0793C106.995 61.1175 107.795 60.335 108.778 60.335C109.759 60.335 110.556 61.1129 110.561 62.0707C110.561 62.0735 110.561 62.0761 110.561 62.0789C110.561 62.0846 110.561 62.0902 110.562 62.0959V75.9708C110.562 77.6472 112.817 77.643 112.814 75.9844C112.814 75.746 112.813 75.0446 112.818 74.8626C113.019 72.6299 116.844 72.6831 116.844 74.977V76.6397C116.844 78.0552 119.088 78.0552 119.088 76.6397C119.088 75.6765 119.889 74.8929 120.874 74.8929C121.989 74.8929 123.118 75.3657 123.118 76.6399V77.7211C123.118 79.1223 125.336 79.1459 125.362 77.7405C125.366 77.5116 125.378 77.4605 125.419 77.2918C125.869 75.5741 128.47 75.5659 128.926 77.2833L130.31 82.4993C131.311 86.2732 131.27 90.2518 130.193 94.0051L127.057 104.933C127.029 105.029 127.015 105.129 127.015 105.229V109.729H114.696C114.076 109.729 113.574 110.221 113.574 110.827C113.574 111.433 114.076 111.924 114.696 111.924H128.137C128.756 111.924 129.259 111.433 129.259 110.827V105.381L132.353 94.5983C133.537 90.4718 133.582 86.0973 132.482 81.9478L132.164 80.7521H134.593C135.213 80.7521 135.715 80.2607 135.715 79.6545V47.2933H149.852V69.4465H139.868C139.248 69.4465 138.746 69.9379 138.746 70.5441C138.746 71.1502 139.248 71.6416 139.868 71.6416H150.973C151.593 71.6416 152.095 71.1502 152.095 70.5441V41.7447V41.7445C152.095 41.1384 151.593 40.647 150.973 40.647ZM81.244 42.8422H94.8464V45.0983H81.244V42.8422ZM97.0907 39.1955H133.471V45.0983H97.0907V39.1955ZM81.244 69.4465V47.2933H94.8464V69.4465H81.244ZM131.581 78.5572L131.097 76.7313C130.389 74.0646 127.017 72.9093 124.752 74.5524C123.525 72.6359 120.646 72.1091 118.715 73.3126C117.714 71.207 114.887 70.4268 112.805 71.451V63.1763H123.01C123.609 63.1763 124.096 63.6536 124.096 64.2403V66.3486C124.096 66.9344 123.609 67.411 123.01 67.411H116.87C116.25 67.411 115.748 67.9024 115.748 68.5085C115.748 69.1146 116.25 69.606 116.87 69.606H123.01C124.846 69.606 126.34 68.1447 126.34 66.3486V64.2403C126.34 62.4433 124.846 60.9812 123.01 60.9812H112.645C112.157 59.3418 110.609 58.1398 108.778 58.1398C106.558 58.1398 104.751 59.9071 104.751 62.0792V78.557H97.09V47.2933H133.471V78.5572H131.581ZM135.715 45.0983V42.8422H149.851V45.0983H135.715Z"/>
</mask>
<path d="M150.973 40.647H135.715V38.0975C135.715 37.4914 135.213 37 134.593 37H95.9681C95.3484 37 94.8463 37.4914 94.8463 38.0975V40.647H80.1222C79.5104 40.647 79 41.1475 79 41.7447L79.0003 70.5441C79.0003 71.1502 79.5024 71.6416 80.1222 71.6416H94.8464V79.6547C94.8464 80.2608 95.3485 80.7522 95.9683 80.7522H99.392C99.1723 81.1668 99.0245 81.6256 98.967 82.1142L97.492 94.6087C97.4506 94.962 97.431 95.3205 97.4338 95.6654C97.4338 98.4825 98.8984 100.803 101.017 102.587C102.262 103.636 103.507 104.684 104.752 105.733V110.827C104.752 111.433 105.254 111.924 105.873 111.924H109.325C109.945 111.924 110.447 111.433 110.447 110.827C110.447 110.221 109.945 109.729 109.325 109.729H106.995V105.229C106.995 104.91 106.853 104.606 106.606 104.398C105.377 103.363 104.149 102.329 102.921 101.295C101.121 99.7786 99.7239 98.1198 99.6775 95.6481C99.6756 95.3865 99.6904 95.1213 99.7211 94.8602L101.196 82.3656C101.299 81.4857 102.062 80.822 102.969 80.822C103.563 80.822 104.061 81.1415 104.306 81.415C104.708 81.8648 104.752 82.3698 104.752 82.5661V91.8186C104.752 92.4248 105.254 92.9162 105.874 92.9162C106.493 92.9162 106.995 92.4248 106.995 91.8186V62.0793C106.995 61.1175 107.795 60.335 108.778 60.335C109.759 60.335 110.556 61.1129 110.561 62.0707C110.561 62.0735 110.561 62.0761 110.561 62.0789C110.561 62.0846 110.561 62.0902 110.562 62.0959V75.9708C110.562 77.6472 112.817 77.643 112.814 75.9844C112.814 75.746 112.813 75.0446 112.818 74.8626C113.019 72.6299 116.844 72.6831 116.844 74.977V76.6397C116.844 78.0552 119.088 78.0552 119.088 76.6397C119.088 75.6765 119.889 74.8929 120.874 74.8929C121.989 74.8929 123.118 75.3657 123.118 76.6399V77.7211C123.118 79.1223 125.336 79.1459 125.362 77.7405C125.366 77.5116 125.378 77.4605 125.419 77.2918C125.869 75.5741 128.47 75.5659 128.926 77.2833L130.31 82.4993C131.311 86.2732 131.27 90.2518 130.193 94.0051L127.057 104.933C127.029 105.029 127.015 105.129 127.015 105.229V109.729H114.696C114.076 109.729 113.574 110.221 113.574 110.827C113.574 111.433 114.076 111.924 114.696 111.924H128.137C128.756 111.924 129.259 111.433 129.259 110.827V105.381L132.353 94.5983C133.537 90.4718 133.582 86.0973 132.482 81.9478L132.164 80.7521H134.593C135.213 80.7521 135.715 80.2607 135.715 79.6545V47.2933H149.852V69.4465H139.868C139.248 69.4465 138.746 69.9379 138.746 70.5441C138.746 71.1502 139.248 71.6416 139.868 71.6416H150.973C151.593 71.6416 152.095 71.1502 152.095 70.5441V41.7447V41.7445C152.095 41.1384 151.593 40.647 150.973 40.647ZM81.244 42.8422H94.8464V45.0983H81.244V42.8422ZM97.0907 39.1955H133.471V45.0983H97.0907V39.1955ZM81.244 69.4465V47.2933H94.8464V69.4465H81.244ZM131.581 78.5572L131.097 76.7313C130.389 74.0646 127.017 72.9093 124.752 74.5524C123.525 72.6359 120.646 72.1091 118.715 73.3126C117.714 71.207 114.887 70.4268 112.805 71.451V63.1763H123.01C123.609 63.1763 124.096 63.6536 124.096 64.2403V66.3486C124.096 66.9344 123.609 67.411 123.01 67.411H116.87C116.25 67.411 115.748 67.9024 115.748 68.5085C115.748 69.1146 116.25 69.606 116.87 69.606H123.01C124.846 69.606 126.34 68.1447 126.34 66.3486V64.2403C126.34 62.4433 124.846 60.9812 123.01 60.9812H112.645C112.157 59.3418 110.609 58.1398 108.778 58.1398C106.558 58.1398 104.751 59.9071 104.751 62.0792V78.557H97.09V47.2933H133.471V78.5572H131.581ZM135.715 45.0983V42.8422H149.851V45.0983H135.715Z" fill="#77675A"/>
<path d="M150.973 40.647H135.715V38.0975C135.715 37.4914 135.213 37 134.593 37H95.9681C95.3484 37 94.8463 37.4914 94.8463 38.0975V40.647H80.1222C79.5104 40.647 79 41.1475 79 41.7447L79.0003 70.5441C79.0003 71.1502 79.5024 71.6416 80.1222 71.6416H94.8464V79.6547C94.8464 80.2608 95.3485 80.7522 95.9683 80.7522H99.392C99.1723 81.1668 99.0245 81.6256 98.967 82.1142L97.492 94.6087C97.4506 94.962 97.431 95.3205 97.4338 95.6654C97.4338 98.4825 98.8984 100.803 101.017 102.587C102.262 103.636 103.507 104.684 104.752 105.733V110.827C104.752 111.433 105.254 111.924 105.873 111.924H109.325C109.945 111.924 110.447 111.433 110.447 110.827C110.447 110.221 109.945 109.729 109.325 109.729H106.995V105.229C106.995 104.91 106.853 104.606 106.606 104.398C105.377 103.363 104.149 102.329 102.921 101.295C101.121 99.7786 99.7239 98.1198 99.6775 95.6481C99.6756 95.3865 99.6904 95.1213 99.7211 94.8602L101.196 82.3656C101.299 81.4857 102.062 80.822 102.969 80.822C103.563 80.822 104.061 81.1415 104.306 81.415C104.708 81.8648 104.752 82.3698 104.752 82.5661V91.8186C104.752 92.4248 105.254 92.9162 105.874 92.9162C106.493 92.9162 106.995 92.4248 106.995 91.8186V62.0793C106.995 61.1175 107.795 60.335 108.778 60.335C109.759 60.335 110.556 61.1129 110.561 62.0707C110.561 62.0735 110.561 62.0761 110.561 62.0789C110.561 62.0846 110.561 62.0902 110.562 62.0959V75.9708C110.562 77.6472 112.817 77.643 112.814 75.9844C112.814 75.746 112.813 75.0446 112.818 74.8626C113.019 72.6299 116.844 72.6831 116.844 74.977V76.6397C116.844 78.0552 119.088 78.0552 119.088 76.6397C119.088 75.6765 119.889 74.8929 120.874 74.8929C121.989 74.8929 123.118 75.3657 123.118 76.6399V77.7211C123.118 79.1223 125.336 79.1459 125.362 77.7405C125.366 77.5116 125.378 77.4605 125.419 77.2918C125.869 75.5741 128.47 75.5659 128.926 77.2833L130.31 82.4993C131.311 86.2732 131.27 90.2518 130.193 94.0051L127.057 104.933C127.029 105.029 127.015 105.129 127.015 105.229V109.729H114.696C114.076 109.729 113.574 110.221 113.574 110.827C113.574 111.433 114.076 111.924 114.696 111.924H128.137C128.756 111.924 129.259 111.433 129.259 110.827V105.381L132.353 94.5983C133.537 90.4718 133.582 86.0973 132.482 81.9478L132.164 80.7521H134.593C135.213 80.7521 135.715 80.2607 135.715 79.6545V47.2933H149.852V69.4465H139.868C139.248 69.4465 138.746 69.9379 138.746 70.5441C138.746 71.1502 139.248 71.6416 139.868 71.6416H150.973C151.593 71.6416 152.095 71.1502 152.095 70.5441V41.7447V41.7445C152.095 41.1384 151.593 40.647 150.973 40.647ZM81.244 42.8422H94.8464V45.0983H81.244V42.8422ZM97.0907 39.1955H133.471V45.0983H97.0907V39.1955ZM81.244 69.4465V47.2933H94.8464V69.4465H81.244ZM131.581 78.5572L131.097 76.7313C130.389 74.0646 127.017 72.9093 124.752 74.5524C123.525 72.6359 120.646 72.1091 118.715 73.3126C117.714 71.207 114.887 70.4268 112.805 71.451V63.1763H123.01C123.609 63.1763 124.096 63.6536 124.096 64.2403V66.3486C124.096 66.9344 123.609 67.411 123.01 67.411H116.87C116.25 67.411 115.748 67.9024 115.748 68.5085C115.748 69.1146 116.25 69.606 116.87 69.606H123.01C124.846 69.606 126.34 68.1447 126.34 66.3486V64.2403C126.34 62.4433 124.846 60.9812 123.01 60.9812H112.645C112.157 59.3418 110.609 58.1398 108.778 58.1398C106.558 58.1398 104.751 59.9071 104.751 62.0792V78.557H97.09V47.2933H133.471V78.5572H131.581ZM135.715 45.0983V42.8422H149.851V45.0983H135.715Z" stroke="#77675A" mask="url(#path-3-outside-1)"/>
<path d="M121.785 40.8527H108.776C108.023 40.8527 107.404 41.4509 107.404 42.2002C107.404 42.9495 108.023 43.5477 108.776 43.5477H121.785C122.537 43.5477 123.157 42.9495 123.157 42.2002C123.157 41.4509 122.537 40.8527 121.785 40.8527Z" fill="#77675A" stroke="#77675A" stroke-width="0.5"/>
<path d="M110.66 49.1498H101.802C101.049 49.1498 100.43 49.748 100.43 50.4973V55.5099C100.43 56.2592 101.049 56.8575 101.802 56.8575H110.66C111.412 56.8575 112.032 56.2592 112.032 55.5099V50.4973C112.032 49.748 111.412 49.1498 110.66 49.1498ZM109.288 54.1624H103.174V51.8448H109.288V54.1624Z" fill="#77675A" stroke="#77675A" stroke-width="0.5"/>
<path d="M139.085 55.5022H145.749C146.502 55.5022 147.121 54.904 147.121 54.1547C147.121 53.4053 146.502 52.8071 145.749 52.8071H139.085C138.332 52.8071 137.713 53.4053 137.713 54.1547C137.713 54.904 138.332 55.5022 139.085 55.5022Z" fill="#77675A" stroke="#77675A" stroke-width="0.5"/>
<path d="M145.749 60.2235C146.502 60.2235 147.121 59.6253 147.121 58.876C147.121 58.1267 146.502 57.5284 145.749 57.5284H139.085C138.332 57.5284 137.713 58.1267 137.713 58.876C137.713 59.6253 138.332 60.2235 139.085 60.2235H145.749Z" fill="#77675A" stroke="#77675A" stroke-width="0.5"/>
<path d="M84.6497 55.5022H91.3138C92.0664 55.5022 92.6856 54.904 92.6856 54.1547C92.6856 53.4053 92.0664 52.8071 91.3138 52.8071H84.6497C83.897 52.8071 83.2778 53.4053 83.2778 54.1547C83.2778 54.904 83.8972 55.5022 84.6497 55.5022Z" fill="#77675A" stroke="#77675A" stroke-width="0.5"/>
<path d="M91.3138 57.5284H84.6497C83.897 57.5284 83.2778 58.1267 83.2778 58.876C83.2778 59.6253 83.897 60.2235 84.6497 60.2235H91.3138C92.0664 60.2235 92.6856 59.6253 92.6856 58.876C92.6856 58.1267 92.0664 57.5284 91.3138 57.5284Z" fill="#77675A" stroke="#77675A" stroke-width="0.5"/>
<path d="M128.136 51.656H116.235C115.482 51.656 114.863 52.2542 114.863 53.0035C114.863 53.7528 115.482 54.3511 116.235 54.3511H128.136C128.889 54.3511 129.508 53.7528 129.508 53.0035C129.508 52.2542 128.889 51.656 128.136 51.656Z" fill="#77675A" stroke="#77675A" stroke-width="0.5"/>
</svg>
